<mxfile host="Electron" agent="Mozilla/5.0 (Windows NT 10.0; Win64; x64) AppleWebKit/537.36 (KHTML, like Gecko) draw.io/27.0.9 Chrome/134.0.6998.205 Electron/35.4.0 Safari/537.36" version="27.0.9">
  <diagram name="Page-1" id="iVuytyOc0Pu4_Uv6DV7E">
    <mxGraphModel dx="1426" dy="841" grid="0" gridSize="10" guides="1" tooltips="1" connect="1" arrows="1" fold="1" page="1" pageScale="1" pageWidth="1920" pageHeight="1200" math="0" shadow="0">
      <root>
        <mxCell id="0" />
        <mxCell id="1" parent="0" />
        <mxCell id="XOvQ0BD-W2Z6vSkuwIXB-1" value="&lt;font style=&quot;font-size: 30px;&quot;&gt;&lt;b style=&quot;&quot;&gt;High Level Architecture&lt;/b&gt;&lt;/font&gt;" style="text;strokeColor=none;align=center;fillColor=none;html=1;verticalAlign=middle;whiteSpace=wrap;rounded=0;" vertex="1" parent="1">
          <mxGeometry y="20" width="350" height="30" as="geometry" />
        </mxCell>
        <mxCell id="XOvQ0BD-W2Z6vSkuwIXB-2" value="" style="rounded=0;whiteSpace=wrap;html=1;fillColor=none;dashed=1;strokeColor=#626262;" vertex="1" parent="1">
          <mxGeometry x="79" y="120" width="200" height="640" as="geometry" />
        </mxCell>
        <mxCell id="XOvQ0BD-W2Z6vSkuwIXB-3" value="&lt;font style=&quot;font-size: 24px;&quot;&gt;&lt;b&gt;Sources&lt;/b&gt;&lt;/font&gt;" style="rounded=0;whiteSpace=wrap;html=1;strokeColor=none;" vertex="1" parent="1">
          <mxGeometry x="125" y="105" width="120" height="30" as="geometry" />
        </mxCell>
        <mxCell id="XOvQ0BD-W2Z6vSkuwIXB-4" value="" style="rounded=0;whiteSpace=wrap;html=1;fillColor=none;dashed=1;strokeColor=#626262;" vertex="1" parent="1">
          <mxGeometry x="320" y="120" width="760" height="640" as="geometry" />
        </mxCell>
        <mxCell id="XOvQ0BD-W2Z6vSkuwIXB-5" value="&lt;font style=&quot;font-size: 24px;&quot;&gt;&lt;b&gt;Data Warehouse&lt;/b&gt;&lt;/font&gt;" style="rounded=0;whiteSpace=wrap;html=1;strokeColor=none;" vertex="1" parent="1">
          <mxGeometry x="601" y="105" width="190" height="30" as="geometry" />
        </mxCell>
        <mxCell id="XOvQ0BD-W2Z6vSkuwIXB-6" value="" style="rounded=0;whiteSpace=wrap;html=1;fillColor=none;dashed=1;strokeColor=#626262;" vertex="1" parent="1">
          <mxGeometry x="1119.85" y="120" width="180" height="640" as="geometry" />
        </mxCell>
        <mxCell id="XOvQ0BD-W2Z6vSkuwIXB-7" value="&lt;font style=&quot;font-size: 24px;&quot;&gt;&lt;b&gt;Consume&lt;/b&gt;&lt;/font&gt;" style="rounded=0;whiteSpace=wrap;html=1;strokeColor=none;" vertex="1" parent="1">
          <mxGeometry x="1151.85" y="105" width="120" height="30" as="geometry" />
        </mxCell>
        <mxCell id="XOvQ0BD-W2Z6vSkuwIXB-8" value="&lt;b&gt;Bronze Layer&lt;/b&gt;" style="rounded=0;whiteSpace=wrap;html=1;fillColor=#ffe6cc;strokeColor=#d79b00;fontSize=20;" vertex="1" parent="1">
          <mxGeometry x="360" y="160" width="199" height="30" as="geometry" />
        </mxCell>
        <mxCell id="XOvQ0BD-W2Z6vSkuwIXB-9" value="" style="rounded=0;whiteSpace=wrap;html=1;fillColor=none;strokeColor=#d79b00;fontSize=20;" vertex="1" parent="1">
          <mxGeometry x="360" y="200" width="200" height="520" as="geometry" />
        </mxCell>
        <mxCell id="XOvQ0BD-W2Z6vSkuwIXB-10" value="&lt;b&gt;Silver Layer&lt;/b&gt;" style="rounded=0;whiteSpace=wrap;html=1;fillColor=#f5f5f5;strokeColor=#666666;fontSize=20;fontColor=#333333;" vertex="1" parent="1">
          <mxGeometry x="601" y="160" width="199" height="30" as="geometry" />
        </mxCell>
        <mxCell id="XOvQ0BD-W2Z6vSkuwIXB-11" value="" style="rounded=0;whiteSpace=wrap;html=1;fillColor=none;strokeColor=#666666;fontSize=20;fontColor=#333333;" vertex="1" parent="1">
          <mxGeometry x="600" y="200" width="200" height="520" as="geometry" />
        </mxCell>
        <mxCell id="XOvQ0BD-W2Z6vSkuwIXB-12" value="&lt;b&gt;Gold Layer&lt;/b&gt;" style="rounded=0;whiteSpace=wrap;html=1;fillColor=#fff2cc;strokeColor=#d6b656;fontSize=20;" vertex="1" parent="1">
          <mxGeometry x="839" y="160" width="201" height="30" as="geometry" />
        </mxCell>
        <mxCell id="XOvQ0BD-W2Z6vSkuwIXB-13" value="" style="rounded=0;whiteSpace=wrap;html=1;fillColor=none;strokeColor=#d6b656;fontSize=20;" vertex="1" parent="1">
          <mxGeometry x="839" y="200" width="201" height="520" as="geometry" />
        </mxCell>
        <mxCell id="XOvQ0BD-W2Z6vSkuwIXB-14" value="CRM" style="image;aspect=fixed;html=1;points=[];align=center;fontSize=12;image=img/lib/azure2/general/Folder_Blank.svg;" vertex="1" parent="1">
          <mxGeometry x="147.99999999999997" y="197" width="69" height="56.00000000000001" as="geometry" />
        </mxCell>
        <mxCell id="XOvQ0BD-W2Z6vSkuwIXB-15" value="" style="image;aspect=fixed;html=1;points=[];align=center;fontSize=12;image=img/lib/azure2/general/File.svg;" vertex="1" parent="1">
          <mxGeometry x="207" y="217" width="32.46" height="40" as="geometry" />
        </mxCell>
        <mxCell id="XOvQ0BD-W2Z6vSkuwIXB-16" value="ERP" style="image;aspect=fixed;html=1;points=[];align=center;fontSize=12;image=img/lib/azure2/general/Folder_Blank.svg;" vertex="1" parent="1">
          <mxGeometry x="147.99999999999997" y="317" width="69" height="56.00000000000001" as="geometry" />
        </mxCell>
        <mxCell id="XOvQ0BD-W2Z6vSkuwIXB-17" value="" style="image;aspect=fixed;html=1;points=[];align=center;fontSize=12;image=img/lib/azure2/general/File.svg;" vertex="1" parent="1">
          <mxGeometry x="207" y="337" width="32.46" height="40" as="geometry" />
        </mxCell>
        <mxCell id="XOvQ0BD-W2Z6vSkuwIXB-19" value="&lt;b&gt;Object Type&lt;/b&gt;: CSV Files&lt;div&gt;&lt;br&gt;&lt;div&gt;&lt;b&gt;Interface&lt;/b&gt;: Files in Folder&lt;/div&gt;&lt;/div&gt;" style="text;html=1;align=center;verticalAlign=middle;whiteSpace=wrap;rounded=0;" vertex="1" parent="1">
          <mxGeometry x="85" y="430" width="180" height="60" as="geometry" />
        </mxCell>
        <mxCell id="XOvQ0BD-W2Z6vSkuwIXB-23" value="" style="html=1;verticalLabelPosition=bottom;align=center;labelBackgroundColor=#ffffff;verticalAlign=top;strokeWidth=2;strokeColor=#d79b00;shadow=0;dashed=0;shape=mxgraph.ios7.icons.data;fillColor=#ffe6cc;" vertex="1" parent="1">
          <mxGeometry x="432" y="280" width="55" height="75" as="geometry" />
        </mxCell>
        <mxCell id="XOvQ0BD-W2Z6vSkuwIXB-24" value="" style="html=1;verticalLabelPosition=bottom;align=center;labelBackgroundColor=#ffffff;verticalAlign=top;strokeWidth=2;strokeColor=#666666;shadow=0;dashed=0;shape=mxgraph.ios7.icons.data;fillColor=#f5f5f5;fontColor=#333333;" vertex="1" parent="1">
          <mxGeometry x="673" y="280" width="55" height="74" as="geometry" />
        </mxCell>
        <mxCell id="XOvQ0BD-W2Z6vSkuwIXB-25" value="" style="html=1;verticalLabelPosition=bottom;align=center;labelBackgroundColor=#ffffff;verticalAlign=top;strokeWidth=2;strokeColor=#d6b656;shadow=0;dashed=0;shape=mxgraph.ios7.icons.data;fillColor=#fff2cc;" vertex="1" parent="1">
          <mxGeometry x="920" y="280" width="55" height="74" as="geometry" />
        </mxCell>
        <mxCell id="XOvQ0BD-W2Z6vSkuwIXB-30" value="&lt;font style=&quot;font-size: 15px;&quot;&gt;Raw Data&lt;/font&gt;" style="text;html=1;align=center;verticalAlign=middle;whiteSpace=wrap;rounded=0;" vertex="1" parent="1">
          <mxGeometry x="420.5" y="360" width="78" height="30" as="geometry" />
        </mxCell>
        <mxCell id="XOvQ0BD-W2Z6vSkuwIXB-32" value="&lt;font style=&quot;font-size: 15px;&quot;&gt;Cleaned, Standardized Data&lt;/font&gt;" style="text;html=1;align=center;verticalAlign=middle;whiteSpace=wrap;rounded=0;" vertex="1" parent="1">
          <mxGeometry x="627.5" y="360" width="145" height="30" as="geometry" />
        </mxCell>
        <mxCell id="XOvQ0BD-W2Z6vSkuwIXB-33" value="&lt;font style=&quot;font-size: 15px;&quot;&gt;Business-Ready Data&lt;/font&gt;" style="text;html=1;align=center;verticalAlign=middle;whiteSpace=wrap;rounded=0;" vertex="1" parent="1">
          <mxGeometry x="862.5" y="360" width="154" height="30" as="geometry" />
        </mxCell>
        <mxCell id="XOvQ0BD-W2Z6vSkuwIXB-39" value="&lt;b&gt;Object Type&lt;/b&gt;: Tables&lt;div&gt;&lt;br&gt;&lt;div&gt;&lt;b&gt;Load&lt;/b&gt;:&amp;nbsp;&lt;/div&gt;&lt;/div&gt;&lt;div&gt;&lt;ul&gt;&lt;li&gt;Batch Processing&lt;/li&gt;&lt;li&gt;Full Load&amp;nbsp;&lt;/li&gt;&lt;li&gt;Trunc &amp;amp; Insert&lt;/li&gt;&lt;/ul&gt;No &lt;b&gt;Transformations&lt;/b&gt;&lt;/div&gt;&lt;div&gt;&lt;b&gt;&lt;br&gt;&lt;/b&gt;&lt;/div&gt;&lt;div&gt;&lt;b&gt;Data Model: &lt;/b&gt;None (as-is)&lt;/div&gt;" style="text;html=1;align=left;verticalAlign=middle;whiteSpace=wrap;rounded=0;" vertex="1" parent="1">
          <mxGeometry x="370" y="424" width="180" height="166" as="geometry" />
        </mxCell>
        <mxCell id="XOvQ0BD-W2Z6vSkuwIXB-44" value="" style="endArrow=none;html=1;rounded=0;entryX=0.995;entryY=0.645;entryDx=0;entryDy=0;entryPerimeter=0;fillColor=#fff2cc;strokeColor=#d6b656;arcSize=20;targetPerimeterSpacing=0;sourcePerimeterSpacing=3;curved=0;" edge="1" parent="1">
          <mxGeometry width="50" height="50" relative="1" as="geometry">
            <mxPoint x="859.5699999999999" y="410" as="sourcePoint" />
            <mxPoint x="1019.4200000000001" y="410.20000000000005" as="targetPoint" />
            <Array as="points">
              <mxPoint x="931.4199999999998" y="410" />
            </Array>
          </mxGeometry>
        </mxCell>
        <mxCell id="XOvQ0BD-W2Z6vSkuwIXB-49" value="&lt;b&gt;Object Type&lt;/b&gt;: Tables&lt;div&gt;&lt;br&gt;&lt;div&gt;&lt;b&gt;Load&lt;/b&gt;:&amp;nbsp;&lt;/div&gt;&lt;/div&gt;&lt;div&gt;&lt;ul&gt;&lt;li&gt;Batch Processing&lt;/li&gt;&lt;li&gt;Full Load&amp;nbsp;&lt;/li&gt;&lt;li&gt;Trunc &amp;amp; Insert&lt;/li&gt;&lt;/ul&gt;&lt;b&gt;Transformations:&lt;/b&gt;&lt;/div&gt;&lt;div&gt;&lt;ul&gt;&lt;li&gt;Data Cleansing&lt;/li&gt;&lt;li&gt;Data Standardization&lt;/li&gt;&lt;li&gt;Data Normalization&lt;/li&gt;&lt;li&gt;Derived Columns&lt;/li&gt;&lt;li&gt;Data Enrichment&lt;/li&gt;&lt;/ul&gt;&lt;/div&gt;&lt;div&gt;&lt;b&gt;&lt;br&gt;&lt;/b&gt;&lt;/div&gt;&lt;div&gt;&lt;b&gt;Data Model: &lt;/b&gt;None (as-is)&lt;/div&gt;" style="text;html=1;align=left;verticalAlign=middle;whiteSpace=wrap;rounded=0;" vertex="1" parent="1">
          <mxGeometry x="610.5" y="424" width="180" height="256" as="geometry" />
        </mxCell>
        <mxCell id="XOvQ0BD-W2Z6vSkuwIXB-51" value="&lt;b&gt;Object Type&lt;/b&gt;: Views&lt;div&gt;&lt;br&gt;&lt;div&gt;No &lt;b&gt;Load&lt;/b&gt;&lt;/div&gt;&lt;/div&gt;&lt;div&gt;&lt;b&gt;&lt;br&gt;&lt;/b&gt;&lt;/div&gt;&lt;div&gt;&lt;b&gt;Transformations:&lt;/b&gt;&lt;/div&gt;&lt;div&gt;&lt;ul&gt;&lt;li&gt;Data Integrations&lt;/li&gt;&lt;li&gt;Aggregations&lt;/li&gt;&lt;li&gt;Business Logics&lt;/li&gt;&lt;/ul&gt;&lt;/div&gt;&lt;div&gt;&lt;b&gt;&lt;br&gt;&lt;/b&gt;&lt;/div&gt;&lt;div&gt;&lt;b&gt;Data Model:&lt;/b&gt;&lt;/div&gt;&lt;div&gt;&lt;ul&gt;&lt;li&gt;Star Schema&lt;/li&gt;&lt;li&gt;Flat Table&lt;/li&gt;&lt;li&gt;Aggregated Table&lt;/li&gt;&lt;/ul&gt;&lt;/div&gt;" style="text;html=1;align=left;verticalAlign=middle;whiteSpace=wrap;rounded=0;" vertex="1" parent="1">
          <mxGeometry x="845" y="424" width="180" height="236" as="geometry" />
        </mxCell>
        <mxCell id="XOvQ0BD-W2Z6vSkuwIXB-52" value="" style="shape=mxgraph.arrows.arrow_right;html=1;verticalLabelPosition=bottom;verticalAlign=top;strokeWidth=2;strokeColor=#6c8ebf;fillColor=#dae8fc;" vertex="1" parent="1">
          <mxGeometry x="1055.2" y="360" width="79.65" height="30" as="geometry" />
        </mxCell>
        <mxCell id="XOvQ0BD-W2Z6vSkuwIXB-53" value="" style="image;aspect=fixed;html=1;points=[];align=center;fontSize=12;image=img/lib/azure2/analytics/Power_BI_Embedded.svg;" vertex="1" parent="1">
          <mxGeometry x="1139.85" y="287" width="51" height="68" as="geometry" />
        </mxCell>
        <mxCell id="XOvQ0BD-W2Z6vSkuwIXB-54" value="" style="shape=image;verticalLabelPosition=bottom;labelBackgroundColor=default;verticalAlign=top;aspect=fixed;imageAspect=0;image=data:image/png,iVBORw0KGgoAAAANSUhEUgAAAEcAAABQCAYAAABLY2g8AAAAAXNSR0IArs4c6QAAAARnQU1BAACxjwv8YQUAAAAJcEhZcwAADsMAAA7DAcdvqGQAACIkSURBVHhezZxptGTXVd9/+5xzq+pNPWhsyZotqWWrJUuyLSxsy5axsbEZjGMGm0VC8iUrKysJLJIQgmOzAqx84kO+wAIHPBAIgxkMcRBG2BBLlq0BeZKEpNY8tdXT6371XlXde87Z+bDPuVX91C23I1iL3et2vaq699xz9tnDfw+3JMekMScqee8Rkf79yUhVT3i//XwRQVU5fPgwa2trNE1zwvffihbHq2OpKjlnAJxziMgJ522f0+L77eMB/Vgiwvr6Ok3TsLKygqr25zhxdhNxclqMOV1q2/aEG/1josq4nDOq2jObwqx6uFw5fCLjXxbVmw8Gg3+UzNlOzjmcc72EVpKUkqZkaiUiJ3DxVLRdhE8m3s45uq7rx/x2aPv9F3eaBbV6KTqVWm0nEWE6neK9f5H6S865Zw7lxv2XLzHo3yfVhZzsfqda5HaV3b5h34qk2DLnHG3b4pzDe3/iOYvMOZ0dWaQ6ne1XaP/Z/K/t39R3lEVpzvgQ5qcWSjkhgMiJc/t2mVFpUbIrg2OML1q7qiKx6zSXk7afcDISbFUqkMv77VeU5SIo4MoZyuIVusiqfqGKQ0DsyKo4ESCXU14+cyotSk7OuX9fX3POyGw2s9vK6XkrKXPazpw6VannSEZRFA9IYUcqjHH9+a5OCogxMmlb1o8dY21lhd07dqA5oaI4F/5BmFNf2TZmzhkn2/DC6ZKgPadETU6SCKJiktDvdJUSu4f9Pf8uq7FQAfGB+x54kI//4af4xkMPQc5zZhdPUo+XQ3WMRVtb+VC1x3uP895Tj2+PFCHhSEDG2Udl4aZKc0bMr1jcfXsnvcp4Zww+vDFmczoDcdBv3ukypN518Vj4dpvxX2T4dsb3knO6EqQiIKBkhAQaQTOipkBZIDpI4lAxu1P9n53hcEhviQAE16urU4dXCD6AEzSmOZpd2OH/3+NUdlWLnVlk0rcHQFAgY9YEMzzi7CiSkmV+oGV38rZdX9hQG7FcA4DHu6ZnqQwGSGjICBlI2xaQc+6PlDNZIWXddtRrMjknVOfMrrSdcSLyYsk5GVeN6opy74WUhsiAznla0wAc4DXjckIoqLMMWUfO1W8VLXPOmOOBDkebIIopbAfMEFQcWWwzNENZn41bvBviSGoDOudQ58g4FCFrBhQRxTmbiSsOaPva6+spJMe2tbJjcd/nn3kUZ2qUO0jHSJNn8bPn8d1RPC2khFS7oeDKQEmUTpUj4ymHxjNe2Eo8fzzy7BZMVNDBiI2u48DmhKfX1zkw3uDAeMwLR9eJWU1Ki+QYX+ribG7jibIVYbyVQcAXZqRsKmpqWqR/YX2L64QCAudfzb82a1H3em5KTW4KhwvecXKc7vB+Hv/aF5lstew++xIuec2bYHgWKTtUIJThs4MkcGRjg8//9Rd4/JlnGa7toO0ySGB9MuHY1ga7VoasDgOzOKMZDHBdZM+OXbzzrbdw3hln4oOYKhWP40ODCMwS3Pa5Ozh48BBO4HU3XMveKy5FyDhZMMjO08eVC1TXyYmSM5eJetj/Uk6zwyF4LQMIeCKOjuH4WWaPfZHjj9zBxnP3Q96EIiVVrcol5IpQUUbLI2btlEimI5NFCY3ZGHUOHxpSSqhCVkwSiyQANE0ztz8K0wj7n3mOu7/xIPc98BDjyQznwDuHiMM5j3PmmUUELdJmkOJEWpAcEzU7TDqyOESl56bhjXolJJfwmoAJ7P8sT9z2G6xPO1YvfR2Xf/e/IC1fQYvgyQQ1TwRCC3Saiaq9XUnOkxzcedfXuP3223nzTTdy0+tuQGOHF/BiXmwgwnITCK4ANefoukgIgQwcmsFv/P4f8cj+xxh6z4+/93t542uuQBPINrQSX8QOW2OVGDf36xW5mi0BwRV35hREtSDcXOB+AqJdqgK5JaTjjJgw1FnxasZWIaOSQDpUEkFg6B3LwbMWPDuDZ6eDncCuQaDpWoY5s7tx7Fkacu5oyBnDhp2jhuVBQMR2WgRUTV2kwAaK2kbvSM4VD2j2em7EzXM5VSTbaz0W0ZmLMZJSIiuFOXaI+RpEO7C9LgzpQNoyQNkKpyAdMyI4CAgkaBAawGOpACWjRFQikAxEKoQMA2AIDLqOQeoYaSYAOSmaMi6WI5v/sZWqWUFnr04UyYmgdu+A4nv2FFOQFQoTHBmnNl5/SNUbxYUQSppiwTDUoUzDTNbEAKA6j7pAlEAioGXhqBLF0YkjijfGVdsEZAZEaYglrhIUp+DIBM00hUEDjfjY0WgqjE04TXjJeDF3oJqLay4zFdfvtlcz/qGAUpOEMgfbs7lT0eK+1RgGto466R7nGMfmhwJZPAlPi2eqMBNPK4GZeLrKOxHIGcIQJwMSnk3N4EzpKqbJQMKDNGBmvUTDiqpJpQCaEu1sRuxaNEfQSCaRxYx1RFFxON8g4sl4kgpZDeOIOFJMOClQo1oQV7TfiW2yONpMAbDa4ySkSNd2nFPMcMGiZVEiiChDlxmxxZAJI1qWyAzJwBa4KZAYSkMQR+MyhEiQRKMdgRlDbRmRGZAJqrjUERygCfGGHlUzq6srXHrxRZy1ezfeObwTnBOSqgW2PqAi1foZvnEOLXjKNYJzTYEQDb5Z6tcSFw4FQvCkRQZq7tGpcoK3qgyyfc4EmwyRwBbMjsD4BRg4SMkASxbQFpoOHr+b5+/4M9anLTsuvppXvOmHYOflkDvIk8LpAIwgrMHSMjgPrikT8uA84/EWk8mUHavLDIeBFFubrPcmyeo5vrFFGxPiPM77YmATIsJm5/mdP/wMTz//Aj443vmdN/Km6/fRpkj0rs8ReRG8KmvLA0YNBDHmGLAsjuTFzLE9STRkEYJOERkzfeROnrjvr2i64wRtUXEkvGGVBpamR+mOPEsm0DVrhDMuYSwrNCETdEqOSmbIJjuJy+dz/c3vgt3noR2oH4B4VBVf07RZQW0uOSdcMyIiHDi6wZ/eehvHxpvEmPrsoWrCOc9WJxwZd2y2HQAXnLGDtaB0KRFLAq3xnty1EFtuvP463vrm1xKKvVLNlnVET82cSIOK0OgmyHGO3PFHPPzFP2GNMQNmRX8DqmaWl0Km0Yh3IxJDjk4jeTjCSUKIaMyoDjkmu4g7L+H17/ggw4uuIyVHdA1OnLlSsYi9rNgYpAm82ar9h47xK5/4bQ4fXceJGfcQPClmXHEUuRmSfUPKGddt4eIWOQHSWAkKJbcTQoq85Y038SM/+K6eOdWByIvVymwOaPFEJjm4TWYPfpEDD93JEmMaac3au4DXxHLIpPHzHH3hCVIa0iydw9KZ59I1A7rUWWyTMiIDJrJMt3IuF159C8351xKzpxNnIK/YBi0gocdsubN3zvHU0TF//NnbOHZ8THCOnJWmaYhdwrmGqTieP7rOZtuhwNm7ljljZYBmwbkBKMR2RiDS5MR1r34Vb3vz63vGOGODqddibLUIgAwMWnpT8gyYQhqDTkEiMAANZnNkCx75K565/VOMpw07Lngt59/y/TDcBSlT4KzdWgT8APwuCLtJLmDxu8MVJJXKznkttoCMqrmKSZvospKSza7GRzkmcI71LvMH/+ezPPToozRN4N3fdTM3vfYaUsy2JotF8SQalAHKruVBLzGVsoFCtXyLoUDzdzqPohUhuRHJ7YLBBTC8nDS4inZwGdPhRejochheBkvn0eURrY6Y+J2wdDFpdR+THdcRV64hrlwNq1fB6uWwdAE0O0F8AZsZrwmnmUanjHTMMLcWrAJZM0kyWRMrQ8+OxnHWasOZq4Gz1xrOXms4d/eIc3cOOHt1RIgtTWwZdDPOXV3ivIHjvOXAuUvCOcvCnlXhFauBc1cbdi8PEHPOc6ogMadkmTyqOFGES6E4uhpQ5JJHEbuErNBV8JQsBehVkJywkNSTRcxVugHIEFi2Q4a9jBqEiHD0AO3D96IPfomN+++CY0dAE1mUTAeuJWq7DYCcSJotPLHQJ9OIzb0BRmrHoEiP6bBhsm2jnGj7TLkECzMXyVy7lDhLFFw2qG87m00JxKCjajS1E+0BZVi0H9CDdcQSUYKFH5tPPsB9f/Jx7v/jj/K3f/Y/+eaj34A4K3cwmxQKaK0GIKmSVMmaSJpJqsUeOtTJPGuTTWEdCdFk77VDSbbb5VBNdo0UhMy2gpmRLU1tOMvCVSosDUKdcrFmkewzuXxfGVNycb09qyNVK2c+p2MlrrM8fo6VY08y2DxAnq6Dh6wOCLgcEA1Wy6rcUdtShzPv5SyEsTDGWS67WAsLg8xeqGSyU/BCRsn1n6gxFnA4S0bVe51IZgSTCElMcyzrUEopWiWiAEeJFphqC9oZOxKQIyRLxJMVili78n/KWnYysqwzdvqOUZ6w0pgrd+IQdZAbUGNodSOiNb1jdhJxZC+oE5w4EG9GXpzFVFI3xYMMUIJdI1hBYFEGnCWSESd2FznxqGgx2f1pBWYixAKQ+1SGCC4MQJWhB4gme0KRH4uR+yCu33UsUBUPLhh2wuFFCMWeBSwFmssG5SIJhRdzTlV37Cwl0mRFspZwQUqyzKMqTLYSR47MOH58xnTa9fUQJ/PC5otM0QlUJrL/qae49XN/w5e/8RCdLugFOo9UdMCxtMqW7OL4NAANnrKrtUqx4BArZSx+My5mVDJdTsWO1NWX82z+ZCgV1aqqxpyUwauiW2OYbBJihyTLOZnLF1K2EvDDDz/JR3/9t/jor3+SBx981MyDzlOnJxjkSrmkDik7E4GnvnmA2+++i288/BAAQRNBIx4zvBDIo3NYvej1rF50I2sX3gB+B67YJZjrrBYGJYEoliWyT1pgimOG0pYI3Jhq2Z/CBgVHMjsllrrINc3gYbkRXnPZJbz+1XvZt/eV7F5bLs7EkL+5CdjcmvHIw4+z/5En2BzPyqfOLGBhkEsplRytlUdTzqRsu5ByAWS+wTcDQmhwxfOYOtkgmgV3xmVcfsuPse+7/ykXXnMz6lagSnxRiVjUIhZWzHq5KxwslQwlkSTToiCerpzXAZ1AxNPhSQQSnlyMrheLi9918xv5Zz/yT/iJH3s/l118QYEWii7keZswYGlpmeFwCSn5U9V5t5dak4H1pUgpapkNAu8M2A6BgDf8ompYR71xWYWsYlhzcAasXATL5yJLO8liIpqB5GoVFFKRICigWUGTAkPUD2nxJeeSEZchtT1qjoWxCdiKhbHOUFKFWx4lBGE4sODRm0tGRPDi+8A25UjXzUi5JjDK9d6+L/yYa1at+LmiUm0qi8ORijqIL16ruHDnGrzzZG9sREYgQ6Rk+B2K18yAKSPWGckmA2YsMWXNbbFDNlnxU2ALyTOCKKpC0MRSHEM6zo48ZicdO3LHmkaWc8duH1lGGaIEsVww2aRDxRKyFO/j3LwAXbXcu0BKSuxMaxapeixRI3Ky8L/LZvg80JUE2W1fuZ8/v/VWrrricj74vh9gRQxx+rL7WcGXqFEoGyGQRXGaQFvSwf2sP/93rIpjkAWIZCKqEJyHNGa6/ys8+/UvMYgTjvtdnHfD29h1yauYuCEqQyQLI7FQo/VDNmSJ1XMvZLjnIlAPKiQndHb7PgzQrMTYIeoIfgDAXV9+hE9+4ndpGuFHP/A+3vimV5MShry0tQT+k08+qWeffTZLoxExJe578O94+tChIn5CFxoefe55HnviSc4/5xz2XnIJIxSv4FTwKtzwmus4+8wlm1DKpnIVN2gLusX6l/6MR77waUbtJsOccXRkOkvmqzDQjtBtlVKPMJEBcbDGJEPGIQQkw4BI44Utt8y638WVt7yXPTe9E9zIwsli5HMpsWiCT/3+p5lNZ2jKDIartDM4+MKYxx57BohcetkruPDC88h5hjJhNj3GBRfsQQ4cOKCrq6usLC2TUT72qU9x78MP4b1nEAZE8UTXoEDjPXGyCW2LYJ0QS67hJ370A1xx6R4ciqYOAbQ0G4nOgDHxzj/loc98krU4Zpgjjmh5Ycy1B83mhn0guUCHWul3YRMkK04ySaB1KxyVHVz0zh/nrLe+H9wSZPO2ubp1DxvH4cMf+m8cPbJOCJ4YARkS3CreL4NEUprQxSmqLZq3yHnMtddeOVcrKR1OX77/fp4+esQqgyrkMOCJ5w7w2BNPcu45Z3PVKy9jJQSaxo4lPHsvvoSdqw05d+DKrkmwHIl24CKbd3yah2/9fdawXIoTIWY1uC6ZkDtcN2HgEqodUxW6MMQ1y4gMLCWRLBWqzpH9iLEsc8nbP8CZN30fWRqcag/d1BwdW5vwe7/3Wcabm3jvyerwzRIvfPM4Tzz+LE0jnHf+GezZc4apep6S84Tzzt9t+ZzitlBVWqTveIgFfH3h/kf4zJ/fylV7r+L93/cOVi2bYyAPgzoqEOlKV4PHlVKLGaIE33yS9MKTVkeSAkpUzC7RQeiI+7/C/jv+N2u6wUazxp7r38quK64nuVWyWJHR49AugrdKyOCcy5GzLiljlkyQOjN8TtBUAKSWWxaT+Dd//Ti/89u/h/eRD37wB/nON15tlyo0oVRTKV6qUpOh6dTqSCWaT9OJtZSkiM+W5zG4ZIzJGWLqyDn1cX0Rbhs0ezjrYvy1t8C1b4Nr3g7X3ALXvhV3zS2w7+3wqjfjLtjLxA1w3rGlA5oLr4F9t+D3vZ1w9Tvw+94G+74Luf49yLXvYrjvZuSciwtDrJ5VnD5ItsqGaC9FFKDuHYQmoUxQthgOO4YNBD8jhBlelMZb8q0U4c2dSc6ErEgumTjA54RXy400GQblc/M50LlM8J6hGzAgMaSjcRGcpQUgEYNnhqO15hQmwCawAWyW2lFHskVlJalnkhpgxJQBUzytQlJPSkKMkLQpFRAAJeeSaPIlwHIWy/mFkE7Kpnrn8S4QfChRfdl0lT5CXyjqmXMXh6E/1LgMuBxxqcOnyMgbYwC6nMgkBiLIeAv2PwZPPA3PPw/TWb+jOBPtHuUCCbVSCNatRSmvWCwGDo9mAQ0WMCJIdobga4YAK9AVM4OTwLQVDh2e8Ozz6zz97BGObUysVlfj3VSYI1aONlRr1wvekh/qcCq4Rbhc7jDPe5TPVgYNy01g6B2DwvoaCBo+FeIDj/CZX/xlPvGTP8ttv/pxODa1HLMbmBFUrKBHxpMZaGSUW0YKTTYmlqn1nR2+AKYGk2KnVqVAIl4SXmwDK3PEB6ZxwK9+/NP89Id+mf/yi/+dL997f1l4wT01ZoxjunaDth2bTSxnSekTqNJ0AnMyBt6SKKl0/736ist577u/hzd9x+uNX5aSIZJtzKSEo5uM7/46x+/+Bke+/ghMLY3RFfY5oMlKkzONKo1ma48rdXDIBCcG91FCcQqIhQBieSlrZ5FsjDFhL+uyN7MIDz19nHseeI6vPvQcW+3cnlqDZ0dWWF1tOP/8M3nlKy8qAamdsZgymF9ZqCYgjcNmbXcsL3Ptq67iFeecbTBdrXO4b5wEaCM7O1hLwghbTQRmzhJPlnE0yfA4RCx3EwWyz2Zriqo5LfcQY06NyNEW0Vz6fGpfRCWLzCPQ5oYoI6IMiXm+WFEzH5o7Xv3qK/nPP/cf+Tf/9l9z0xteV2yR9CoIai0otZUVSsAlveJDraaUY1GMvQmrfQEMnGPoPUEcOEsSUIQVSs7GVQNgpeB5+lXQqGYQteZqypFrQrWMA4hYadfYZlgJatSvdAid1nPqHRxkhycwGjasrgR27Rhar2I5zbINRi+SnEplCmhRM0tbG2iLRW583+xjpj46UO9KfkoZWKbHEtp9PmUubdZr4QglU+hyQ6ZhJoFOBU0ZYsRntc54N7DaumDMk4zWsQtzrM2kJZMsW6h1i7BtUkthaiqpqMrzuXz05EIIp3jmQawnCaAyRZQWZYq9dqK0tejjlDZA9HYeav3KUxJjSWySmBCZEplZzh96IGnALY92Mlm7gONrl7G5ch5paRc0Kzjv8OZAC1mJWbR4HJ2nw1RzqYAY5lHack1nUXrJyPraPs12xlRoUKsPC1SNs+mg5W89jqzQqrWyaXHLMxQrulrhTVE6TcSSgVGECZktDHmbjajstv8KNgM87tK9vPaH/yVX//BP8vr3/SvOvOJ6i7arNinzji7N5BTLppbmGwTJVsQJ3hs0CK6sPoJMQVpUIolITJEY04K2lj/K36dUKyiTyWp1KgmsyIAVPGt4dhE4k8Cu0tnl8IyAocJaaMA1BOA8dezBsxvPMp5lHCOkx0pSNgQCrJ0Fl90AV72F5StvQNfOoMu5N8iWo3HACJUlJCxbICMDyyMBw6EgOiBHbDNkuWzzEsgSyACR0ANA13iypbf7JVc6SZdFVcR+RoY0H3mCQ48+wXLKDFE6p8w00WRYXlqFe77K7Z/4LQ5ujtm9by9v+bEPkM4609r8U8Il80DHHczWVjjv2tfA7lWqytvNYnGqZsKVTMwgrsFl69Y6NnHc8/Vn2Jq2OF+i3GKYnR9wfOL56Cf+gIcee5TRkuP93/M23vGGG0hxRtSICMSuJQRHSjMuufh8rrx8T/U9JjtiG3ZK5sSiek0CvOf+X/kkn//4/2JXzKwgRMm0ZIIKo5jZ0XUMJlt0Xhg3julwyCw0BBF8UoKaFzkUBC69gB/9uf/EruteRSp2zSY0L7moFZNRhKTQiCI0PPjUBj/zC7/GU88csNgJ87AiprboiC4FJrFFXWLVO1acI+VIUgOOaEdwiXa6znt/4B389E/9hDFHC0AoGYqTqpUWiD+lBLiATlvy0eNwdEw+skE+fJx06Bjx0DHisTFx2lqLHDBIyuzIOlsvHGTrmweZHTxEd/Aw8dBRuiPHmB49Bm1rAbuUzc8Gzj3GpIZASgGhwYsr0pGJqWXabnJs4zCzbotZt8VkOmZrepxpu8l4ssGsbUsTpWfSRdanE9anLcemkWPTyFaXmbQt0+mkQNSyxrkthpOpVd23aQFUS0BQz6G/vJ0n/u+XWO0yy+JJXunKYgYx4755kMfvuovjW5uMzjmTK7/zDXRrK2S1rGFQ29l1D3HPWVzzvd9NuHAPnTqCs4JosLSzPUFTsg8FO0Jucc5zcCNx2x1fYf34ZukZNMZlzfhmyPo4cOtt9/D400/TNMKbbrqO171mL7GLqFp+nDSj0RmkMVdefiFv+I5rC4MyViEuz3+eijkW2FmzQAWvZvRLoOYpaQHADeHPP89tH/qvvLBxjHNuuJa3/9LPw0XnlTitiGAuZQ1zg8y8M2+YjRFZ4Yt3fo1nnnmG0WjIW95yM7t3NaViYT3CSYWYFHFCTMZQA9SZ0DieOw7//iOf5Mt338PyCH7mp/45P/Se6y17qxZTeynBs1ZnkA0ZU1G0MeeEutUiBbXcjmABZhuEycAxXfa0K4GtUWB96NgYudJA7IgqtOLZGATYtQorQ7aWPZtLgenygHa1IS554tDTeuvNEQrTiyP62tfv5y/+4vN87nNfYGtrYnuSzK6kDEEyo9AydDNGbsqAGY1uMdBNmrLzsbNuMkktI9+xAqy6jlXfsiyRgUacWvDq6EpHgAnFomK57Yypxs2gfrmkKmXByaWbp88EwnyBmnL/nGeC/tZV+OxOhngC1s7SD6FYX19q8H6E943dqRhrEFK2+do8St2qtJtYrEPpL7TmA8vWYM3eRAOPJAR7UA3xZp/KIusccwWB24FgJWOMMciX1GiD4Ov7DMPab1K6H1DzTFaxq0nTXCZnzxn4coim0gqSyZKJpeJqTQdzX+F8NlQsGZwrzeOuNB0EkICKFQHE1VyN5QJcqWZmBM0OLUFrVimVznpIf1RR6dv7K4MMIWcSmdI7btGQWju+rw9QqCLizZNgvjhbLwjBuQXpsAcADBsXuVNFSCjWzpZKNRRvT9jZtkgfhwkJV/M3Nu1SVCzBhwRETMosQLaco2CFN5MGKzgqA5J6kJrLrFTTFXVTFhByDRvsqEYOclZyLn2DSdFkVYD6/IH0GimWPSvPHlBCkNrVNd8fS6RZQ2ZT2Gftkl6EMFg2SSgNUzZ806f0BeuGsHsVm0Wvr2UqbVEfU2Zjzjy94fqgapGq5MxZdpJnPO2hLcFqRbVmhJqKIdIX5E3YrLaEeIILOPHM2rbvIJDa27O4TxI4fGTMPXc/wL137+eeux7jrnse584vP8oLL4wRN2TaRe6976vc+9X93PeVR7n73se4486Heeqpw/0yfA2D8jzVEDsQL+Tc0jgLSoszpMqFBdS2BopE16jPpLu8LrryRdWq1D/ZK4CICbumPq/dZKyB+i+/xMf+w4d57uAB9r71Jt7/Sx+GS15BtuSBKUA2Bos47vnbv+Njv/m7QENKJYcjQsqDIvpjnNti2DRIFnLyxC7xnne/mff94Nvm9SATUkppngPHlZ/82V/grjvvYcfSgA//3L/j+9/95j48MH7UenqfaTqBpCBk/5GPfOTnt313Ai1KlXUr2GeGP50NLWYnBmft5sqbb+LSG69n197LYWlYptQ7bSv/Chw8uMGDDzxsbS3O45wwGA5JydFFQZwyHAaa4Gi8owkDmiZwxRUXs3fvxTa32vHQezpAhVEQrtt3BTe+dh83vu46zti91sdN9JfYfLYzhgUhOQkIPDXZReV0nSfg7T09k2paoU2J0AyQAqrKKCCwsRF5+qnncBKIURFnjwT95W138tWvPcza2pAf+uH3cNaZqzgiZEdOcPbZa+zZs6O/bY3Juphx3ll8VPWnzlb7255A27FdpSo5fcWzfrhIL8I/5Sb9HwsPhNXHfIw9kZzsHC/lgdPSq7O4ayW7WueOAv/jN2/lb/76LnafucyHPvRTnHtm0ZcFqtOq01WFVBp/ghND7iXZZR1G5bzyWlf5rZiz8IznqU+m8oP5zFRTj4Eoqa0EtCX3loT5b95kM9piHqB0f1q/b8wJLctICimVekVOdLNx6Quq6dDyWOMCcJwzytirtaxU0rI1zacLzLHrTr3WSn34kNL8NyMqLdqbRcrZDHKPgTDsY2BPCSpWGCuer4xmyDkbPFA1tEtZYBVIUYdIgw8NTWgsnkrJJC9GE/e+QlAgR66Jf0vqG9wM5ckGc+j01u/0GAPl6eB6cIoLRUobbqmpamlbNYEQKKUwrxZEehVCgQMn2CVs+2pwZwDOftzHVANSmhHjpj3aWMTVu4A4yx0WnGlDaRmwKmtxFuacff9wy4vl5vTIqhLbF3AK0hLTODHQZguskzEmmSqVeKVOS/q/bMfLg6yueL3K96wgbkoIWzg3o+usy7P3HqXoPbc12ZLmfeXVgo4a89mM5v7y2yVpu1YrlnHlBzLqZLT07ZyMFtl58jNeTL0d3/55sV0pw6OPPs7hw0dxIuzbdzWrK9bIoqXZodb07TN7qm5xnHruy6HeW3Wx65kj5ReH2HaDUzHo74tsExwpWSdopdQX8+a0nQGLc1v8++UwqDLHmdH8h138S1Fv68rzSjFlYnEMfkGFtjNl8bPtf78cxizSXCa30cthWOX8kSNHTn+i8xRSSXDn0oz0Ym+5Xd23fw/m4RZ/k+ulaDwe9z8XukiOk3D6ZDejnFePlyJd+Imn7fBgkRbHybmkKkuSfm5O5/NZ/EmYU9HiHE9nrpTfUW3bWhmd0yklZ5HqTeY/zPPSdLrMWVy0vT/5dLYvdnvjw8nodBmzSFXiK50wm0VPVWlxIqd7w8WGqG91fh1/sS/xZFQ35qXGW/zudO5dqa5bxH6wqNL/A4uqgx65T3hzAAAAAElFTkSuQmCC;" vertex="1" parent="1">
          <mxGeometry x="1201.6" y="287" width="60.35" height="68" as="geometry" />
        </mxCell>
        <mxCell id="XOvQ0BD-W2Z6vSkuwIXB-55" value="&lt;font style=&quot;font-size: 15px;&quot;&gt;BI &amp;amp; Reporting&lt;/font&gt;" style="text;html=1;align=center;verticalAlign=middle;whiteSpace=wrap;rounded=0;" vertex="1" parent="1">
          <mxGeometry x="1134.85" y="362" width="154" height="30" as="geometry" />
        </mxCell>
        <mxCell id="XOvQ0BD-W2Z6vSkuwIXB-56" value="" style="sketch=0;html=1;aspect=fixed;strokeColor=none;shadow=0;fillColor=#3B8DF1;verticalAlign=top;labelPosition=center;verticalLabelPosition=bottom;shape=mxgraph.gcp2.big_query" vertex="1" parent="1">
          <mxGeometry x="1180" y="421.7" width="59.7" height="60.3" as="geometry" />
        </mxCell>
        <mxCell id="XOvQ0BD-W2Z6vSkuwIXB-57" value="&lt;font style=&quot;font-size: 15px;&quot;&gt;Ad-Hoc&lt;/font&gt;&lt;div&gt;&lt;font style=&quot;font-size: 15px;&quot;&gt;SQL Queries&lt;/font&gt;&lt;/div&gt;" style="text;html=1;align=center;verticalAlign=middle;whiteSpace=wrap;rounded=0;" vertex="1" parent="1">
          <mxGeometry x="1132.6999999999998" y="492" width="154" height="40" as="geometry" />
        </mxCell>
        <mxCell id="XOvQ0BD-W2Z6vSkuwIXB-61" value="&lt;div&gt;&lt;font style=&quot;font-size: 15px;&quot;&gt;Machine Learning&lt;/font&gt;&lt;/div&gt;" style="text;html=1;align=center;verticalAlign=middle;whiteSpace=wrap;rounded=0;" vertex="1" parent="1">
          <mxGeometry x="1132.85" y="640" width="154" height="40" as="geometry" />
        </mxCell>
        <mxCell id="XOvQ0BD-W2Z6vSkuwIXB-64" value="" style="shape=mxgraph.arrows.arrow_right;html=1;verticalLabelPosition=bottom;verticalAlign=top;strokeWidth=2;strokeColor=#6c8ebf;fillColor=#dae8fc;" vertex="1" parent="1">
          <mxGeometry x="772.5" y="360" width="79.65" height="30" as="geometry" />
        </mxCell>
        <mxCell id="XOvQ0BD-W2Z6vSkuwIXB-65" value="" style="shape=mxgraph.arrows.arrow_right;html=1;verticalLabelPosition=bottom;verticalAlign=top;strokeWidth=2;strokeColor=#6c8ebf;fillColor=#dae8fc;" vertex="1" parent="1">
          <mxGeometry x="530.85" y="360" width="79.65" height="30" as="geometry" />
        </mxCell>
        <mxCell id="XOvQ0BD-W2Z6vSkuwIXB-66" value="" style="shape=mxgraph.arrows.arrow_right;html=1;verticalLabelPosition=bottom;verticalAlign=top;strokeWidth=2;strokeColor=#6c8ebf;fillColor=#dae8fc;" vertex="1" parent="1">
          <mxGeometry x="265" y="358" width="79.65" height="30" as="geometry" />
        </mxCell>
        <mxCell id="XOvQ0BD-W2Z6vSkuwIXB-67" value="" style="endArrow=none;html=1;rounded=0;entryX=0.995;entryY=0.645;entryDx=0;entryDy=0;entryPerimeter=0;fillColor=#f5f5f5;strokeColor=#666666;arcSize=20;targetPerimeterSpacing=0;sourcePerimeterSpacing=3;curved=0;" edge="1" parent="1">
          <mxGeometry width="50" height="50" relative="1" as="geometry">
            <mxPoint x="624" y="412" as="sourcePoint" />
            <mxPoint x="783.8500000000001" y="412.20000000000005" as="targetPoint" />
            <Array as="points">
              <mxPoint x="695.8499999999999" y="412" />
            </Array>
          </mxGeometry>
        </mxCell>
        <mxCell id="XOvQ0BD-W2Z6vSkuwIXB-68" value="" style="endArrow=none;html=1;rounded=0;entryX=0.995;entryY=0.645;entryDx=0;entryDy=0;entryPerimeter=0;fillColor=#ffe6cc;strokeColor=#d79b00;arcSize=20;targetPerimeterSpacing=0;sourcePerimeterSpacing=3;curved=0;" edge="1" parent="1">
          <mxGeometry width="50" height="50" relative="1" as="geometry">
            <mxPoint x="380.07" y="412" as="sourcePoint" />
            <mxPoint x="539.9200000000001" y="412.20000000000005" as="targetPoint" />
            <Array as="points">
              <mxPoint x="451.9199999999999" y="412" />
            </Array>
          </mxGeometry>
        </mxCell>
        <mxCell id="XOvQ0BD-W2Z6vSkuwIXB-69" value="" style="endArrow=none;html=1;rounded=0;entryX=0.995;entryY=0.645;entryDx=0;entryDy=0;entryPerimeter=0;fillColor=#f5f5f5;strokeColor=#666666;arcSize=20;targetPerimeterSpacing=0;sourcePerimeterSpacing=3;curved=0;" edge="1" parent="1">
          <mxGeometry width="50" height="50" relative="1" as="geometry">
            <mxPoint x="105.15" y="411" as="sourcePoint" />
            <mxPoint x="265.0000000000001" y="411.20000000000005" as="targetPoint" />
            <Array as="points">
              <mxPoint x="176.99999999999991" y="411" />
            </Array>
          </mxGeometry>
        </mxCell>
        <mxCell id="XOvQ0BD-W2Z6vSkuwIXB-70" value="" style="shape=image;verticalLabelPosition=bottom;labelBackgroundColor=default;verticalAlign=top;aspect=fixed;imageAspect=0;image=https://cdn-icons-png.flaticon.com/128/2103/2103633.png;" vertex="1" parent="1">
          <mxGeometry x="1171.85" y="571" width="80" height="80" as="geometry" />
        </mxCell>
        <mxCell id="XOvQ0BD-W2Z6vSkuwIXB-72" value="" style="shape=image;verticalLabelPosition=bottom;labelBackgroundColor=default;verticalAlign=top;aspect=fixed;imageAspect=0;image=data:image/png,iVBORw0KGgoAAAANSUhEUgAAAXIAAAFuCAYAAACcMJPpAAAAAXNSR0IArs4c6QAAAARnQU1BAACxjwv8YQUAAAAJcEhZcwAADsMAAA7DAcdvqGQAALQ1SURBVHhe7H0HmBvF2b+Tf/Klh+qindEZjAMEUiEJISQhjRRCCgmkEtK/j/RCeoOEkApppEEKJCQQTLV9WknncpjidtLuSidtm13p7twL1YCxsb3/5zfadcScVuVOV2zm9zzvY7i7mZ1dad955/e2GTMkJCQkJCQkJCQkJCQkJCQkJCQkJCQkJCQkJCQkJCQkJCQkJCQkJCQkJCQkJCQkJCQkJCQkJCQkJCQkJCQkJCQkJCQkJCQkJCQkJCQkJCQkJCQkJCQkJCQkJCQkJCQkJCQkJCQkxoKi78/WBtmr8kX7PI0NvUr8vYSEhITENEIul3tm3vJeplvexwuud5nueDdplreq4FY2FN1qoFveT8QxEhISEhJTBChtWNs6q75ec9i3Ncu9VTdZWbe9TbrlPWoPbwgqm7YF7rpNgT2yMRj0hqDIvyfOIyEhISExSVhjmkcMWN4LtbJ3pmax7+i2tzBveusNt7LLcPzArK4L7OGN/F8obfxMtz0uBVat/b9U5BISEhKThytzuacaZfelmsnOL7j+L3Wb9Wk222xW1wfW8IagXBkJSv5wUGRDQcGtPE5xiyIVuYSEhMQkIe84z9ct9+NG2f297vgZ3fZ8WNeVzdsDZ2QjV9xQyM2UdiORilxCQkJiAuC67tNWFYuzC97QG3XTuzRvuXcajr8O/DZ4bW/j1sAcWs+tbVExdyqYA6LZlYvEdUhISEhIdIBi0Z9tOJVTil7l/3TL+49ueSOG4++GkrWG1nPFLfLb3RDMX2QyakVCQkJiTCi4LtVN72zNcn5mOP7tuuXtdNZt4k7JGsdd7YrV3UwwPzh1rez+TlyfhISEhEQD6OXyiZrlfTFvs38bjp8DXeJv3MZ5bm4Zd8vidnyupGHFQ1EbMRsCLHxY/LrN/iauVUJCQkJixowZ/aXSs9eUyyfqtv8VzWRLi6yyTrPYXvDcsL55DHcDBTsWwUYAax48Oubm1rzFHs5bbKtmeY822iSgyPH3muPdIK5dQkJC4gmLlaXS4QMl5xW6439es1hWs9gOKFXw3BBueTdQxJ0KlPCgP8yVtr9pW1BAhiaSfhxfy5vubZrt/jhvue/QSu4Juu3dXaqMjJoDgk1Ft1lKvA8JCQmJJxSCIHiSZrFX5U33mwW3ktZs7yFYuuVKLQmnVTx3K+GhhaFjslxdF7D1mwN3/WZY3PfrbuWOvOVelTfZ5/NO5bWl0sjh9WvLBcFT82W3F9a6OC/E27Al0GyvPwiCJ9ePk5CQkHhCYK1VOS5Xdr6et9yUYfvrkfIOBYtkHFFhdipQ/nB6QnGX/FqSj2Z5OzWTrSnY/m91y/kYFPeAOZQQ11UP1XWfZljetTgNiNeAYMMxHLa2Wq0eKo6VkJCQOChxh+vO1FnlfXnLu81wKusMp2bVIrNyPFY3BBY3aqG467AZcOfnDs3y/LzFrjNs/5MFy3uh4XmzLrroorat5wULFvw/w/auqDk1R18T6fu67ZWLzvA8cayEhITEQYPVrvvcXMl+ddEb+r5mMctw/L1Q3N3gvGF5Q3kjekUz2b6CU3F1083opnup7rpv1nX90E4UdyNoNrsE6fuNHJ5Q8JrNhlAdURwnISEhccADiToFx/tYwa3cisgP0BBRjPfYrO9aGn0twmQ9dzQWHESXeAXNZH/TTfbpvFN9vriO8QIhj9gsGq0ZPL5ueds00z1DHCchISFxwGLAZCdpFvt5kQ2tgcXM1m8ZF+/NnZSVkf2CTUGzveUFx/+Obnpvz5fYfHEN3USuzM5FdEsjRT7oDQd5092ZL9vvF8dJSEhIHFDI5TY8c23RPV2vJets4jHZ3HE5NuokSq+HFa/b3l7D8bZptrvcsNlXdaf6EjG6ZCIxYLHXI1SxUaZolEE6UHY/I46TkJCQOCCwJJc7xDD9swzL5/QJFDikkdJrRxBuyDZs4UrccCojmuWmDcu/MD9YfX5/f/9TxOtPBsB/a5b3QLFBAhKsdG/D1kAzXVk4S0JC4sAClKph+e8tsMoi8NRwBo6F+8bf84Sf6rpaTLblPlJ0K6puu9/UbP/l4nWnAgWrcpxmMY/z4Q3uobrlHsSk/0EcJyEhITFtkbfc9+YtpuqOvwvW81isb3DmiPGucd5sn26x1QXL+/rAoPX6XC53iHjNqYTuOES32CpraMOo+4CE2Z03uq76NHGshISExLQCb0Ds+P8psOoOKHDwxqJSayWR4xJlZjXbHdZsdmWu5L1Bc92Z4vWmC+6yrOfolncb4tPF+4GgaJdmeXf4vj9bHCshISExLbB2kCV11/uJZnv3IAwPIYSiMmtXCo7/gG57KzTX+xCaQIjXmq7QbO8K1GQR7wcSpu+zcpmdKI6TkJCQmHLkyux9Bbe6llcbDFuiiYqsPanFgGsW22w4/g15i323aPkfzrnuK+/Qpq81HkE3vW/6m7Y3uK+ag9awvUd0i71OHCchISExZVhbdOZpJvt7kQ3vdEYax1CPRUCtYD70yyyi4qDjbTBsb41msptypvtjzXLP0cre84Ig+H/imqYS+bL9kYJb2RsXTolQy7zNZCy5hITE9EDeZm/VLc9AHZG48q3dEDQvjuLNEcIX1hffgRosuskM3fKv12z/W5rjnTkwOHjMGtM8YqromHzZfqNmse3g98X7gMBnoNveN8RxEhISEpOK/v7+p6OUrOFUHgAXPpZolPFIVLEQNVgQIYJNpFbC1turWe5DeYvpmuVdq9veNwfK9ru0Qfvlg4wlJ0O5F+3q8agTw2uuNFg7KjfqlvcXlL0Vx0pISEhMCnS9emjeYn+AVRxXe1uUbtEtcRLFmIPOiNquQckj29Ma5sWq7tUsb41us+vzjvdT1BQvOtUzC5b1wv5S/7PFexwPLMt6jmaxO1HLXFwnBM9Mc9idODWIYyUkJCQmHCsGzIRushuhjNppnwZKBEoV1vNEK/M4wXVR5wQWMhKJkJRTs5bZ/brNXMP1VqCOuO6wH+q2e57uOC9ZOTLyDPHeOwF4fJ/HjI9eD54bqBfdso4Sx0lISEhMKGBBarZ/C6iBdgpbwSIOk3hW5y12OyzmyaZg4iSiZqDQwVnzYl1eFWvdqdveZs3xrLzFUjmL/dxw2PmDtv/ygutSPIOVK1sreZTGxfyN7rdGAfmBYQ+/WhwnISEhMWG46y7rObrp/Bt1TeKiMSKBkoJTsuBWNmomu6RYHD5sYGgoodtsgPPDDcbUi2YxvgHAqQn+nYfsTbQ1H1IznJapruO8O/6tu9c9edu9T7O9nG771xu29wNUOtRt77S1lnVcqVR6XGEuw/XfoVnsoUZx9BEFlLe8C+rHSEhISEwY0CczX3YuhnJtRadwCoM3UPCW58rOa+rnyVnWW3TLe6CRcnvcHGi1ZrIB3WbXaKY7kLfZQ9gYEJ8eUTpogBxZtuL4bknEuzfi3hEWifXAgodjU7e8tO6wPxm2/618mX1kwLQ/pVve1kb3innxc/T/rH8+EhISEhOGnOueNVgZeRAWqqiU6iVscQbF9rO4NPqcxb6DeRpRDpHwnpkmsw2ncspKxyE5x39NwfE+qlve5brFlmqWt62mZKu1yJWwiuL4GlF0LrhOrXHFOq7Ukc3Juw9ZbJ9ms82a7e2KWwuaXWi2l5+qKo0SEhJPINhBcKRm+6tROwSUh6iQIgFlojneprzpfAAWvDhPBLRy0xzvVig+cY5R81neCsva9pxoLObVq9VD8+XK3ILjv0Z3/M8jjE+zPTSlWA9rH/XIQceA98a/sKCbbRpdl1C5hzViRv8+FGxmms225NnENrqQkJCQmLGmN/Mtc3hjYDRRhnAYapZXWVt23iSOb4SC571Qs1kVBaTEuSKB8oXVmjPdK3O5XNN4azQ9tqxhJWext2gOuzBvu9cYjn+7ZjNbs9i9sNSRHYqIFax1fOUDuiOcWjHdnbptv0+8HwkJCYmu4eZTz5i17F3vXl+8/c7AiKFVav0pK16n9cA10/ngoDf0cFz2Y6TsytV1j+bdzp2CvKO97x9rIPPUZp/Tbe+Xus1u0m0/B+WOTFREqkCxR9w/QiX3R5RMsKKPHKuGxX4url1CQkKia1j6gQ9dmCHK3hXnfzTQy25gCI47Tluwyr1a2TtTHNsKoEkGyu5laMAQGwVjsTDe29++tmieLs7RKarV6tN1q3pUznRfqTve2brrfUMz2dWa5a3WbHafYXv79keuVBC5sp5TILDgJ4J7x0aiW17fRUHwZHGtEhISEl3Bkje8YeGKo44K1Fmzgzsv+lFgVNcHeqh0ucLjTklnzBZlmCG6pFVIIi/EZfs5wx46WpxjvFBd92mmuf4IJOcUnMprDcu9IG+z32omW5o3mc9jym3vIawD6+Tc+8hGruhjN6A2BacCzfI8pPSL65KQkJAYNxBNkZk//447enqC9OzZQeaoo4OVv/5dYMBCRjINz070Nq027HEp15I7dIJusSFQNHHOVFjC+H2u7NyIxs3iHBOBiy666MmoJ4PWbbDe87b3jbzFufflmu2VdIttNRyPc+9Ym7jmdoTTOU7lUdRbF68vISEhMW4MXHttIjN/frGf0iBNaaDOnhVkjj02WPnnqwJjZGNg1pTXTQtKpf8Rx3aK/KDzgXJl5MFm1RN5JEh1BLHXPxHHTyaCi4InFx1nXs6235C33E/otvsN3fb6xhrT7m/aiuiVX4jXkZCQkBg3bv/Zz56fOe44dzkhXJFzZT5zZpA54YRg9V+vCazN2wPDG/49LFdxbKdAPfGBkvsLxGM3oytKPndKPqqV3U+Kc0wVVhdcqlnenWPNPkVhrbzF+hBWKc4tISEhMS6s+stfZqePOaZwe6jE65V59rjjgtzv/xTkKyNLgi6VYu3v73923vRua9WYAg7IglvZNmC6bxbnmGysLTpvMhzfwgbUbM3NJKzHsh3JT+L8EhISEuOGOn9+/x1z5z5OkXNlPmtW0Hf00cHd379411q9eJ44bqwwbPto3WbFZvHlEPzecH19KpNpBkzno0W3srEWftlciUdp/uLPIRgLq1wz3c+K15CQkJAYN/pOf/1tK445JkjX0Sv7lfmcOcHSuXODOz704e13XP6brinzvO29sciqW1uVA+B1Tspu70qhWNVEAwXAwGkXvOqjYUmCphLGye9GTZY4hV9LqGI3L8rlJsWRKyEh8QTC7R8+/0uZefP29jVQ5FyZJxLBckUJ+l/72kdWfO4Ll9kbHjxSnGMsgHVacCt7GhWcigSZpg4UoMn+jhBCcY6JQH7Qeb5meYujui5ag3XVC49mcfztPF7dYqviwix5fXLbvWfAdY8RrykhISExLtz5mc8clj7uuM3LkslRSny/MleUYCkhwfLjjw+Wve1theXvec9p4jydAg5UzXR/B0XYzPkZVSPM2+5PuuF0jQOv8WLb52qO54DDb7amSHgtGcvbigxWzGGY7Epn3eaGNMz+LE/GPiJeW0JCQmLcyLz85b+4fe7cINNAie8XQoIsLPO5cwM1mdycofTSbE/PyeJcnQBRHJrt9aJ8bSPlF0noLNyTs90vi3N0A6i+qNveZajqCAqk2Vpq4vP2cprFKmvL9tuieTTT+6BusZ2NThmYkzfgMNmix19dQkJCogtQ58+fmZk3z1vexCqvV+hLKA1W4G8J2ZSm9Ko0IecumTfvEHHedrDGNI/VbLeIDEhR+dVLrVRA9QHDZu8X5xgPdNN9s+H4d8O6blWHHQLLGn9ruH4+b3mP28hy9oYjNZt5cbx6qMi35WxbZnlKSEh0H5n58z8Bx2ZWVNxNZGkyGdyFrFBCdqYVZVWakF/2UXq6On9+R3x2wXFeYzj+ujgFGAmaPaAGeL7svVGco1Oglrrh+D8rekP3oHxvayu8djLgTS9YpXdt0ZknzgloFrs2rrwt6Joiq+4tOP53xHESEhIS44Y7Y8bTUpTextP1GyjtZrIkmeQWOv7NEHJfihA9Q8jP0z09b1pMKWlHsa8ddD5g2N7DUJSiAqwXUBoFx7cGTHaSOEc7WLly5TMMy32vbnt5s1JrViFeo5GgLVzRG9pt2P5v+vv12MQe3auejb+P49h5clCZ3V4qBePOlpWQkJAYhVQicVqa0u1tUSwNBNY8rHQ4TvuSSf7/KiEVldKrM4R8upfS1/bOmTNXvG6EnO19uVQZeawRx1wvvFcoqw4UO6QojLJzSsGp/Eu32F5Y93Fx3/UCyxqbR9Eb2qaZ/mebNdQAYOlrlseQoSrOBUEhLt327y3YQ+M+VUhISEg0RJqQi6GMs2NU5pHAcQpFDiu9HxZ7T0+QImSnSshAhtKr04rydXXOnDOXUkrqr68NrfvxYGXdviL4atATDSgKiLt+U6CbbO3gYOtwPsP0j9Us9vMCq2zlSjnGWhYFf4fEpIJbHVhTLreleIMgeHLOZD8HXSPOB6klB23B2n/TalOQkJCQGBP6DznkUJWQFf09Pc2jWMYgfZRypQ5eHf+qhNyXpdRQKV2oEvKj3iOOeFfm9a9/cd4oLxj0hvcZqA8Ovhnp8bDSoYDrFHvYmu7OgRhljhK6msUuNNyKZY9sCq3h0cpVFChbnpKP/7fYX3Mlv0ecuxl0i72u6FZ2xm0YOA3oFqsULOs4cayEhIREV7CY0leohGwcK8XSjmCTgOV/e2ithzTMQ+rs2evT8+f7/e//wIN3//CSYM211wUD/XcG+QEt0MsOV+yF9VsCY2RTUEDfzs3bgyIbumON6R8brR+1xwdZ5Xzd9nIFVt2HJB3DaU2jQBC5Aqtdt9mGvOVeMJbKj6VS6fC8yZZwy7vBNbBROOs2Brmy+yVxrISEhETX0KsoH1tK6U4oW1EJT4RENAz49WwigZK6+9KJBA93zBx3fLDsLW8NVlzw2eDun/wsWP23a4I1tywMcstWBEahHLDt9wfG1ntXFfftO13fvO3Dhj+8Eg0xeKXFNkIKI+EOTbe6TzO9RQMl5xXiM+kEeYt9wRxavzeOh8faNMvNrzHXHyGOlZCQkOgKcief/FSVkJ8vBSUyScr8cYKSARBFCaDQUcRLPfLIQD3ssEA98oggc9xxwZLXvDZYfs77gju+8KVg4PLfBCv/+rf7c9klgQl+GxUWYYlX19fomYiagWKF1FE0oEBczoVXfK3sfqa/Wn26+Dw6BTodaaZrI0tUVOIQKPga9VI5VxwrISEh0TX0z5z57MWEXAeKpd34cpXSfeDCeShig993RaDg58zh5Xah2FPPfW6QnjUrWHriicHSU14ZLH3TGUH/OecGK77wpeDuS38arL76H0FuyfJAL5q8RyhX4kiXB00zvGGfUV23o7hu0x+NrVv30zPdgGF7VzTLFK2FPrIVrqq2DM+UkJCQGDN6586dkyHkDnDZoxRqA1EV5RGV0s0qpduwASAundMlDf62q6IogTp7dk25H35YzXKfPTtIw2n7vOcF2Re8IFjyylOD5e95b7Dii18O7v75L4PcDTcGA9ml96654eZv9p555hzx3seLIqueqlnsvrA64ijhtVdcfxdS+8WxEhISEl2F2tNzgkqpzdPyRQVaJ7DAM5TuUxVlmUrpJ9Rk8rIsIXekCdkQZYEiWmXSqBpY7qBlYL2DmoGSh7KfM4cr/kyNutmdmjmzos6e3acScjWiZ9Rk8qNqMvnmJYry0kWJRE929uxnic+kXWiWe3Nc0lEUo54vO7eXSlueLY6VkJCQ6CoyivKqpZT6rSxzxJ+DVklTem3/3LlPv4HSZ2R6el7Vm0z+XzaZvEIl5G5Ep2AeKHUoePw9LHbIhNExkdRz76GACsKpgce7h1E0oIjSlK5TCVmjErIwTcgf05R+L0Ppx6Hkl2JzO/zw54rPSUR+ZOS1mu0/Gud0Das77tRK3kfFsRISEhJdRyqROCNL6bqWypzSALSKSsgNt86d+7h0dqTs9xHyygylH1YpvTxDab9KyD0ZSvdGmaEYC8UaKXhx/smQaC1Q7qCH7u7piRT8XpXS7WlKXZXS1SlCMilCbkknk79Ta/f08uzs2bOunDHjqcGMGU8KguApRmVkgbVhS2AMrf9vTDwUexjRwjZsCTTb70dWaP2zkpCQkJgQLEwk3pWldCsShkTlJypCXuOckP/09vQcJs4DQNGhaiLoiz5K36IqynfTinJTmpBB0DEqpQ+BhoEihRKFgp9QJ2oLwXVhvUebDdYUrY2HaRLyKDalcO1IdLqp95BDfrT8Qx/629rrbghyS/qD3J2rgvxaLdCKZsATnpBpumFrYG7evq+webuMK5eQkJgcLEom35+h9D5udTdQeJFA6eFvUoT8q5Myt1eefPJTF82de7xKyDnpZPLiFCHXZyi9QyWEQbnDSo4sZDS8yIAiaXD9yRSu5EOqCBsYBP+NZ4AuS5yTP+qooO9lLwuWve3M4PaPfSK467vfD1Ze8Ydg9b+vDwp9y4J8/50j2iL15eLzkJCQkJgQpJLJ85cmk/e0yv6EcgsV/p8XzJw5ZoeeOn/+c5cS8qJ0MvnOFKWfTyeTl6UV5Zbs859fXf7CFwZ3HHUUp0HqaRkoUUjEvU+2JR9dk183ioePHK9hTHzq0EODTE8y6HvpScGKt50ZLDnt1YNqIvH7XkX5XorSj6cV5U19c+Y8/7YjjniO+EwkJCQkxg1Ed/QRci8UqKjE6gWNKJZSui9FyC9yM2Y8VZxnrECc+x1vfesJfa973RuzL3jB2ercuV9OKcpvVUp705Q6aUofTlP6GNYQUSKRsufW8hRy8I8THjoJ5X5EsCyRqJ02apvf3jSl28DHpwlZk6ZUxYaYpvQbfYScq86d+1L4ICI+Xnw+EhISEm0BYYZpSnc0s8xBv0CZ9yWT+3op/Z44RzcRzJjxZIQLqnPmzOzt6ZmnotEFIf+L+ugqpTenCSmmKR0OuexHYbnfGXLdnSQ+TbSM4uPrYvL53xDySJqQe1RC1quKsjpNyL/ShPwwRemHUsnky7I9PUcvSiSORNSQ+IwkJCQkRiFN6af6KH2wFWfOy+NSuhuKVZxjsgBF33vUUXMzhLwem1CK0p9mCLkhQ0g2tHofnGwKphOpLw8s8vERncTXT8jmNCF3wj+RJeRilZDzcM99c+c+v/eQQxo6nyUkJJ7ggHJeQukD+y3GGOFNJyi9L5VIvFucYyqRnj37KFi1WNt0sco7kYiLj+LxowJkUS14TtWgHjyldhqbFqVXqYryA/DwOLX0z53b9cxWCQmJAxC9ivLZLKUPt1LmnFNHiF4y+WpxjqlAGqGPhKxAVmqYzNSWtJvAFCnWqdwgIqoGnw0UO3j4O2r3ukclZHOG0oJKyJIUIX/NJJNf7iXk7em5c49acMIJ/yP5dwmJJxh6Kf0aHIytyt/ypCJCcuCxxTkmC/9OJI4Ed56hdAfW066ihVLEZtROJEyYIfog+HgoUihPcN24XhRd02qOiZJ65Y711HHwSHp6KE3pVpXSPFr1pXt6vpil9LVqMnnMwlmzZsPRLD5PCQmJgwgpQi7uo3QvlISoPOqVyO21TMkbFiUSzxTnmGikE4nX9FF6R8Qvi+uLE/gBwhPFgJpIfBNUBUr9in8X3SOeg6oot2XghKw5I69NUwo+fiBN6RDa30Vx8VCkUdmCiOuebCUfKfd6Dj7i3rHRpWpO4gFVUW7OEvKV3mTyXaqivBTOZfEZS0hIHMD47fz5T0slk7+DEmhm5aIuC/5GpfRScY6JQvZFL3oWD9+jdCN443YVJRQZNp4MIR4yUPsJoZgvoyifaRbGGJ08EAcfraH/9NOfglIFiC5JUfrutKJcgGegUvrPNKXLEDoJPhtKvT42vt6hGXHh7a5/PFLPv0dJT1gTon3w3yqlw2lFWZ6m9EqVkC+rPT1v7E8kjnzcg5eQkDjwgBDAVDJ5PRRRnJKDQBFkCNnVqyjvE+foNnrnzHl+lpBbI0tTXEsjgdIM4+QfzlL669sU5XF9NpcoyhFIx4+bjyclJZOIZf9U/bhGQIy9On/+zJSiHNtLyCkqIWdme3r+V1WUS1OEXIcNASGHaUJ2g7LBcxVj4yebi4eC57x7WN0y9DFszVCqq4TcliLkx4uTyXeme3oS/TNmPEW8ZwkJiWkOHLfThPTBKm1mOYa/N1FRUJyjW1ApPTtNqQmF04zyqRe+CdXWdieU6kUzZjxZnBdIU/q5ZnH0sFwRETMeRXb13LlPR82avmRSyRJySi8hH1GTyR+hlk2aUih4HzXgYclH9WlwXdxDGCk0al0TIdHmgs+0zu/wMI93JySjUnpRhtK3gmuPq8EjISExzQDrUqXUbFVki1cWJOTWbvPlKAsAzj5DyMNQts02lHplFCr8SkpRLmzl2INSQh2YOKuc00eEbFhIyIvEsd1C78yZcxYlEq9OE/IR3G+a0msyhGTSNct4Iyx4WMyRcg9j+kettdsSRezUU0NIDuMZq7XY/R/yTTaZPBE1dsT7kpCQmCYAZ5qldHOcooteeO50VJSviuPHChzn4VyEAg+VR1OJaIIwkuTmRYnESeKcjbDg3HP/X4bS30BRinNGgo0qoygfF8dOJMDFIz4+lUiclqX0Ayoh38xQ+ieVEDTRYGlCdk2GMq+Xeq4dnwtODuFn42QovTFN6fdx+pHWuoTENEQqmbwANcebKVSuyAnZ3KsoLxHHdwpwzOlkcgVOAu10JKrjwjdkKP38bccd11GRKlVR3tFH6QNxceiYO0XINer8+VPenxOnFJwi0nPmvCdLaX+mzZPKRAkUOzbQ6LSQJuTeDKV50FEZlICYO/eo8dBSEhIS3cOTVEL+1CxeG8qEKzxF6R2PwksnEh9MUzoCJR53rXrZb4UTsvA2RXmpOF87yFB6eIrSlbAwxfkhmF8lpAqOWxw72YC1i05HaUVZnSXkfnGtUyn4DmBDB7XF/Q6E7OblBhRFRXTPYkpfgGct3pOEhMQk4eaenoRK6crQ8m0osJ55lAchXxTHtwL4dRTlyiaTj0A5t7Iy8XtsLEuSSUSCfHvlOAtMpQn5A+6t0XX3byhz575OHDdZAI+eJuT/+gjJ4fm0Cg9tV6LImf11XrokmAtzYv5IeJkBRVmWovRCUEZwAov3KSEhMcFYnEy+RiVkO6dRGry8EChXteZoPFYcHwdYmSqlf4qcauKcokCBhRZ7vpfSt4rzjQUZRXk/FE0jeiXihhHDLo6baCyYN+8QRNZECVDtOn3bEdwTr9+iKMujph/1oZBRzLs4biwSKXZeDbJ28tmWSSZvQew6araL9y0hITGBUBXla60s5rAe92/jQv7q0Ttr1rwMpbdFFIk4lyhcyUAxEHL1rbNnHyXON1bAuaoSMtwoFDGiDFKKcgtoJnHsROCiGTOeolL6gRSld/NIHDhcGzyPOGn1t9z3QMgu+BTQpxQJTn2UfjBD6a/StSbb96cJeQzXxjPhTucunQIgeJ7g1XmJZEJYSlFuDK8vqRcJiYlG/9y5hyKmuFkTZ+4UJeShbCJxmji+HnCMZihd1SrxKJIw0/JBWMbdbHIRIU3I7Y0UOYSHISoKu3LGjK6GWIqAYxAnn7Si3Jol5FHccydx5FDgdZE+qBUz6m8g+BuENiLRqv762HzVww9/bu+cOXMzinKWmkxekiJkaYYQP03IA5ECjugYcd5OhZ+uwo2ij9JH1VoEzE+W9vSchMS0+rVJSEh0EQsTidPSlG6PU3qQ0Nm1KBcTX7yYkNf1UVpuR4lDOYVWvo24ZXGubgGnCFiqjaxZHn5JyDZR8XUTiwl5MUIM0XiCK8omz7eRYI3hZofwxP+ohOyIe7b4fODgbefUBGSOOSaZQUkCSn+sUrqYlyKglGeE8s0m5rm1K5x6qasRkyYE2bj/USn9MBp8i+uRkJDoAlRCfoSXDtmT4ksJ4dYaIXsaKV4Ua1pC6YZWWaOQiA9PE7JUncDsUSCdTH4MVmwj5ccjVyh9CGsXx40X6SOPTITFynxQKJ1YuhHtEzpq16Up/WmK0hfy7NEwU1Qcg/vDz1PJ5C/FtbQLJAEtRnw7pT9BBrBKyINRJmrEr7f6bOMk4tN5g27MhaYhhFzcjdBWCQmJOqCwkkqI3iyKhR/fFWV56YQT/icah243fYTc02xcJPwlrimeqyajQl+6p+cklZDHGinS0DG4L6MoF4rjxop/zp79LHDUaUUpQAG280wigbKLnMNqLX7+0vqNLk3pTSgUJo6D4P5UQvYieefxKxob0JYunUichMzUNKX/UCkdyVC6Gwod9xQmaY1aRzuCcdjw8V3KUjqk1soavAW11sV1SEhIjAEZQs7PULqnkeKDhPHdjywk5D34+xQhn0aP0HYUFv8bQnZmUK1wkhJKUNVQpfS+Rk7XOofn78RxY8CToIwyyeTtWUr3tkMv1UtEoYDjTieTv8xQOr9+cnXmTF52IO45h3HxI3By1o/rBqBge+fOnbMkmXxXmpC/osQD/BpYbye1ckSJuH+u0JPJhzOULkXOAT4zcQ0SEhIdAIk/qqKozbhyvLwpQhaplH4NTSA4/9ng7+qFx4dTuiXVRtXBboJbloSU4xQ57gXcsziuEyxKJI5XKf0NilF16jDE3yJpKUPpthSlf4YVLM4PoAVcH6W7GtEqkJCD/ttkbJAoAczrsRDyhwylq1VKHwOv3iryKU4wBp9PXZQTuiN9pZNwVwkJCQFpRXlTltKGXGz04qHDTvQCir8X/5YrcUKqKUU5S7zWROOuI454DopBxW02UKIqpX3iuHbASwMj1I/SMjoNdarAQ+fxLhTUShMSm5iEBtWwhHnVxgZz4RljA0kpyvvFsRMNWOppQt6TVpRfoZpl5Ngca1hjRC9x/0AyOYhm3MgeFa8rISHRAsjOUym9KUzyaCh4SVu9qJGC6aNUX6Qop4rXmQyAy1cJ+XvcCYNb5JSuWnDCCU0rKopQFeWNoAKw2cXRHY0kUuAZSh/LULoIm2Yrbhh1WFKElOPugdNdirIuLdRmn2ws6emZ10vpB1VKb4OjFOGSEZ8urrmVRN8d/v0hpJKm9NeZROJ48ZoSEhJNAKdZBlmRDV6ydgQvYpZSpPbfenPYvWcqgEbFiOSIU4Jh1qp+W5s1V5DslCbkd2roF4g7tYgSKaYwUma1Ssg57ZYgQLjeUjhlG8wLgaWuEvLvG9qcb6KBdWQIeXGW0p+mCSnCp4KTT9xn0EwiHp237yNka1ZRfn2rjHSRkGgPuZNPfmY6mbwl7OzesfAQRkIeThPyHZWQV2YUJSleY7KAsMo4qxk/VwkptWo6jdj53kTik1lKLa5YOuCDsRnC8s8mk26G0gtvnTv3UHH+OOB0lCLk+rhkLZ6lSekeOJ3FsdMBvLIjpR9OE3J9htJhfJ/CE8moe2kmuE888zBq6t40slUR6TJjRtPTjITEEx5ZQs7JUPpQO7VSGgleVlhSaq0d2ppsMnkdGh6jBkpq1qwXgvsVrzkRSBHynThFHlqJTrN49mxPz8lcERGyj3O3DeZpJKBRwus+BCseseDi3K2ALk0pQu6P49+5YqPU7Zs7d8KSmroFldKXh01FSstCLrzT2PTIL8MdxIQ8uoSQW7tVm0dC4qBEP7hyRVkdpwTbkejFwxyIbAjngqVeQeVFRGogDh08MK4nrqEbQAREnEUbKsLqkrlzR5XLhTXMY8IpHekkzC6qZYIwTtScUSk9HRSPOH87QFXBZtEg3FlLyHWTtSl2Azj98LK9lC7PUPpAGhRcg3trJTjphH1J70lR+uMFc+fOEa8lISFRi2D5ajuOzXYlUuxQdFGWH5o9o3lBSlFWpQn5ZSaReDccW93qSrNYUT4Tp8ihJMNkl1fUj0nPnXtqhtIUYsI7oQLwt7A204RoKBg1ns1JnTHjaSoha+JORKE1uyutKB8Txx4ICHueXpAmxGvX19BIeJQM/psQL0vp11EsTbyWhMQTGqiJkSJk41giD9oRKEgoJCireoFiTxOSTivK99KEvB0t0sS1tQvU/I5T5KFFPhy1kUO2KRKWMpRu76S4FTY6brUTsklVlJ8gLE9cR6fIEPL6FCGPxClyrD1FCDuQLFE08kgR8gZ8JhlC/pAmZG0UyireXyeC5w+FHp5eBlDOoF1nsoTEQQ9QAkj8GEvEwVgELzRX7iEdE0ZkIPplIJVM/i2dTP5fevbsE8V1NoOaTH45jh7i90WIl5k793jEcuO4vzzk9sW/bSRYK5RHeGq5SU0kXi1ef6xQFeUvcbQK9z/U1v4Hcdx0AuipbE/PaWlCvsQ/P0p5OV04PSGdOI3bEcwV+TFUShdmkskzxDVJSDwh0dvTgwShlvQKft/NlzISWMWwjsNmynv7KK2gKw2KLqUV5VR0IhLXXA90G4pT5DxFnxAvTD3fArqn1X3Wj+W0i6K4KqWf6O8wFr0ZsLGohFTi1s0LZBGyO9XT07Ss8GQD0T3oPJUh5L0ZQlD1cSBD6SY806iq4kSd7uolypjNUro9S8gfFxPyPHGtEhJPKPTPnDknRWm+mVWO8qcqpXsipyZe2G5bW5AooQbzhxvHDpWQvErpRQt7ek5bOmvWbHH9KiGXxCnEUPZER/MGvxsluCceTkjpg2lF+V3vUUfNFa85XmDziSx98fqQMCX/9kUnn9x0E5sMoL5Lb0/PyZlk8jMqIUgG2sgjSsLPqdl9TLRwuqX2maE411dQskFcv4TEEwI8qUZRftosRXxJMomGBwtUQn6RJuQWWGKwcPEi1Sv2blrtmAvKAvNypyUhe9OE3AWlnk4k3hJ1plEpvbSZIo/oHPHnjQTX4bw6ISthdYrPqhsAT58iZGVcZm1EH6D5sTh2stBHyPPUROLsLKU/zhByB0oN4LlEPo5OwwonUiL6i3//UDpZUd4h3o+ExBMC6pw5Z/ZRuiMuuiCM6708+nskAKErToqQ89G4AMod8c5QvvUvfFSTY7wvPcZHc/MNh5BHwHeryeQvVEqXjDVDNRLMDeWZJeQexMIvbGD5dwvYIJZSujvOig2dn0OTTReEFRj/VyXk6gwyNsOsUjzzbnyGkUSfZTvzdbIJ4+/4SY6QR1RFuQrFzsR7lJA4qAHFhfDAsDbJKIFyURVlMK4EKYpXIVY8oyivykIZUPqPNCEWjymndB8sJijKyGoX5+9UsOHAokX9btQcF3/fiUQbDmqrdNOZ2QhIb1cpvSHOGoeEJ6NfLZgx4/+J47sJVMJMz517FEobpyhdgC5FGUL2RG3huvE5RQILvv47EDq4UVBs1N/WC9YQGQXi7+IEn2XYncpFNc7JqBgpITFtoCrKn2F5iy9G9EJlCAnUZLItRXflySc/dcm8eYcgazJLyBdVSm/O1Opc34uIkXpLT7xWJ9KJxSYKrh3e7zbEJyPdXLyPbgMNk7G5xYU9hgrrviwhbxDHdgO3HXHEc5CB2tfT82mV0t4UIfdkCNkdKdm4E1mngs8E94LIFR6ZhFoyhGxCCds0If9GeCIMh2YUDX9GilJIK8q/+ih9sBNHNeYM8wMeyxLyr1vHkHUrIXFAAvU88FI3UjIRD9lL6dfFce0CnDbSrVVFuUhVFCh2G9cCx97t43srgdUGJ5lKSF+zErPdRlpRrmzmdIXiS1Ga6naBrHAD+RyKnKUpfaDbfHdEl+DeIotepRRO0dsRZtmbSHyxPgKpt6fnVRlKt8RZ2liTSuneqHRvKpFA79HlMAKaPT9RME8YrjicIuRLndTBkZA4IAFLLU3purjoFbx0KUXpvXLGjIbNmTsFekiqlH4AHdjThNypErI7Onp3i1tvJCGNsjFN6ddhoYrrmiigrgocxHHKK7xnJM98XBw7FiDZK03pp0DlQJFxKqqLihvzRM7o0PqF7wLVEP+gUvrJTE1Zc4d0PRDCiCbNzegl7tym9I76pB/MpSYSX8hQ6uJ7En6Oo8Y2Eh7dUnvuqUVz5rz88SuSkDiIAE5WJeSuuAiQkNscmQirZunRR8/uJeSULCFfUSldliIENTr2QUFAGp0SxiIhdXB/Opn8Trc2pHYB3hvPME75hNEyev8YKZ6LZsx4Mu/LSukHEGGUpdRBnRNYyFBicddtVyKLm1MwNaptl0rIZpUQJOZ8GTHvvXPmzG1Vd6Zv7twz4ZCM29BwHf55E3KuOBbgvhhKL4+aR7dLB3G/Cv5WUdb1EvK/F0nuXOJgRUpRfhVnsfFED0J2qBNs0eD4vWju3ONxFO5VFDVTK8DVUWXCOAnHo9jVNsRpZwj5dKsSt90A2pqlmiQA7VdeyeRXxbGtgHIByHBME/JHRLtAwdYrXPFanUhEqWEzCC3gLTz0lJArepPJdyE5qJN6MzgBqZSqcU51CHdgK0p/7yGHxNbiCTOSX5clJJNNJvl3Q5ynkTyOO6f0H/+ehM9eQmLSoSrKB9CjsZFTKbSS9qQTiUnty9lP6Xwc1VXUZqF073iVeXQv+4/bhLA0IT/sVZRXidfuFlKK8v1mzl0oSZWQ4U7quqMQmErINzOUrowUbjc4b4zljsr/ct0jaUIWpSn9XpbS16LYl7iWdoEaKX1Nmmhwq5/S3b2EnCeObQQeBUTIl7OUup1UsIy48yylxuJE4mxxXgmJAxqoe61S+lCjNGu8fKHC+b04bqKBeuKIssh0SZFHUq+0soiqIOTvaM8mXn88uFVRkiohg7A0xetHwjsZEXJJK1oClf/SqChI6Y0ZStdBeY3XUYxxoB0irpt/xpRa4LoXU/oJ1BnvRggfEqFUQorNnJW80UkisfTWQw7piL6Df0el9Gps9J3QSKHPYEdKUX7WrWqcEhJTDnRQRyOGOP6SKyNCbhfHTSR4BxpK1+Gla/cFHYtAAYRW3bY0pYvRdBgNmMX1dApYjMuRUNXgmhA86yylG1VCXiSOBUA1oeZ5itIrEcKJOugR7y3O1a5EG9h+pyEhj6qKgpPJFahGme3pORqcu7iW8SCVSFyMqJNmzwFKFW3yxLHtAHHxvYScm6FUj+5LvEYjwXW58icke5uijKpbLyFxwAERBSlFuTFOkYdHbXtpTGJQN3EDpYenKP0ZolniImkmQiJ+OVtLWLkbdMBYMz3xnNKUWs2UblgB8gpxLHh1VIOEAzpL6cNQTOPlvWG5Y0PEhpypOZQLyB9IEfI2cNLdVt4RQAOhuFaz54B7SynKzTPGuYaFs2cfnSXkb32U7owrbywKnmkYReMtVJT3iXNKSBxwABcaF10RcsqbULpUHNdNLEwmT0wrShrXG0/6PV7OZtx0nHC6IbxfHhaI8MhE4pOdNjVAiGOzoz5i2VOUbgV9gb9HWVg1mXwz71lJyAjWHq0hbo5WElnf2DDw3xlC8hlKfwNnJU5g4pq7DUThoIQDTjtx94DPGOVvEWsujh8r0JmqL5kcDAugjbqmKFhb+F15uJfSi1pV3ZSQmNZIUfru/XHB4gtX43IfSSWTPFFjIpAi5L19hFhRBURxDe0I1o5IlxSlf0Q4YxQ6F8Zqj/r7ZoK5YC2GFAjqbX95iaIcIa5bRNhkwYuzQqN5sUYoO5TKVSldnKH0QSjduM20lUSbUEQZ4F+VkGq2Rpuci7R8ca0TCTS1XkbpzmYnCVBPoHVmtPARdArUW8lQek30+bfzPPEdCWmZaxf29BwtzikhcUAgNWfOy1Bzo5HC42FyNXrla+K48WLBCSf8j0rpD7KEPNjukThOQofdJoTmobRpOpl8JxyEKqX3w/obC0WBe99v3RGiZSj9QjMHWZrS72MdcdfBz9UaJ5xOE5JLU7obTtc4WquVQElBWYWb8B6Um00ryj+wMWYond9tJdkOemfNmpel1AopuVFrhoQb3Uj6qKOOE8d3AwiPRG9WOLNBKTX6XouC73joD1rTS+lrxTklJKY90opynErIhjhnES/qpCi/FseNB2Es9LV4geIs2E4Ec6iEZOqTa7BR8OiGWineMv4OijNO0cYJ/p4ry1pp31yakI/cIljosHpRtKlVfDPS0PEvd841+H07Em0wnBaotaJLIz4eJ4JuRJuMB1lCfod7i7OEw81nby8hXxHHdhuLFAV9WpdFpxRxLaJE/oQMIev7EokPivNJSExr3JZMKiqlq+McjLyTTzJ5fbccY4tnz35FNpm8PUofF68nShRqF2fhQcCNZxTl0rg1okGFSukXEKmQpnRX2G1m1DzNBH8fZZ32UZpN9fS8N1KcajL5o3a5+Tgl10zqeW/8fx+lqNP+k+nUUQhcfwYFwmK+RxCEG6ooRzxnzkxx/EQAG26akMvgCI37fosCxd9H6QOg1Ca6IqWERNeAKoApSm+OozfCEqHLRSt0LMhQ+uGoDkg7Co1bUqhFDodrzPo499zTgwiIljw+Mg3TyeS7MsnkdSlCHt0fjtdg3jjB34YRD4+plP5TVZTPoo3bsiZx42MRXAdrg2KBkzRNSCVD6W8RJokSB+K9TSV4k2tKVzY7kYThhvctJuRMcfxEgycmEVINk4JGrU0UrHUJpXsWE/LLyaiSKSExbiApBVENcSVtYcmolJbGw2mCt0QDhz5KH272skcSKWekiKNDUIqQbNy4UNmvX0zIi8XrxuHKROKZixOJ12QJ+Tt4dMwR5/CNE1Aj/NkQ8lgn41pJlIUYUl0PZRRlWTaZ/Chqjoj3MV2QIuQXzU4k0Wmml5A/xZ2aJhq3zJ79ClRnxDriaMR6iTZRlMUFbSXOJyEx7YCwubAZ8ijBlzlF6booZK5TLDz66NkZSq+FVdkuVxkqbVPt6Xlj35w5z88qyrq4sWFc9sLbjjuu48qGvHCYorxUpfSqLKUjuG67R3AIjxjpcAOIEygO3pmpFjJopwj5YzaROK2T2iZTgYyinAUqopmvI9zw/Ozs2VMaFYL8gIyi/HkppXuarTeSaFPNEJIJHcgSEtMXqG0SZ5GHIYj39RLyenFcK6RmzXphWlGWtRtaGIXQoekvnLCYI60oH4ujfaD0wLtmKP2BeO1OkSHkxSqll6OxL55FO1bbeCWiT8LWeg+kCUGG6RdVQqi4vumImwmhiFOP+3wg+NyzlO5FuKU4fioQVv38yhJK72tn044MC5WQNVlKXyDOJyExbbBYUT4A66ORsg1/tqfTJrew1DKEOM0SQyLB70Mn08O9hPwoKp2LNOxMMnlLnPUExY8SuFlC3iZef6xI9/ScBEciGiVEzk3xuuORyIrn3HfN2tuYpfQ3qqK80Z0/f8wFqiYboEjShPyhmRKHwJ+QIuQ6JD+Jc0wlwjBNXqGyne9nmB1bQntDcS4JiWmBXkLerhKys5EVyvnq2s/bDslKK8rnMoTc3+olh0QWT4bSKmpn1M+DkrMqIffGRULw+QnRUJe7flw3sERRjs0S8sM0IWgNN+raYxE835BLfpS3QVOUryI1X7z2gYAsmoQQ8mizjS50LqKX5rRsvbaQkFeqlK5s58TIlXnNX+T3drnQmoREV4AiTWlKt8bx0Jw/J+T/xHEikOaMeimoWhhnRddLVPMiQ+mqxZS+QpwP18QL1Ogli6z4FCF/Fcd1Cwtnzz4xTelNzYo/tSvcEq+ViL1eTSTOVg8/fMLT5ScKS3p65mUJseMc0BA4g/so3bNIUS4Qx08noDkGWhG2Gw7Ls1IpHUG4pTiXhMSUIqQTKnHKF4pcJeRb4rh63Dxv3iyVkL+HoVuj5hAF1mlIjVzfqNlDMGPGk1OELOH0Q6PxiC1XlEdSinKWOHa8gGM3TCQaaeflbiWhEse93n6g8N9x4OUFCLmuGSURneJSyK49AOgiZANnCflLGCI56n5E4aeqZHIklUyeIc4lITFlWEzI89B/Mc7CgjNOJeTn4rgIoAfQCQbj42iQegnDunaBD48rHavi2EvIPXGbS2iNl8baKq0RUFpWpfQ3sJxxUog7oYxFImUO52CK0g+J1z5QsJjSC5cmk481U3jcYU3pEOrKi+OnK9AvNE3pT3GabMcQCR2gG9RZs94oziUhMSVYXCu/ujqO0+YJMIT8rlEjBPTezBAyEPKho8bWC7fUalTK1lQi8elG80XoJeSyZclkw+4y+BnoDljN4rhOgSiGrKK8JB2GIMLaaieaYSwS8ax9yeTDaNV2oFnnKULekKb0vrjNFRJuVkjD/4g4frpjwbnn/r90MvntDKW72vkOcGVO6UhmDBFdEhJdxx3IzCPkzmaKPEPIn8SUZThJs5T6zY7ZkUDJhxmROhRC/TwikLmYojQf13kdc6HQVyqRGFeKejqROClD6Z8QXgnl1GlS0FilzumpLZwAamgigLZ0+OziTm2QaKPCd2Wym113E1lF+Wya0gfaVeYZSt0sIaeI80hITCoylB6OTkBxTXLxcqYI+VvphBP+JxqTIuT8Pkq3tvNljxIrUoQsbCdKI0PI+Usp3RVH03CLkJA7lxx22CHi2HYQJgH9Jk3IPVhXp2n6cYINBnRMO3NFPHI6mXwoTciP2ymVO1VAAxKUh2210YXt7bSb5syZK85xoAHlJLLJ5PZmp4/6zxFt7ZbOmXPAUEkSByEQQZEmZGlcUlAYdvXP8M+flKL0G0sp3dGOEgcFAgWH3p/NysBGQIYmGhPc2WTucD1fEMe2QhoNLAj5JU4R3ebA+T2iTC2lbrtp4BBeHqD2fPqmq1WHZ72U0t3NuGOeB0DIfbcR8nZx/IGKdE/PR7LJ5D2tvuf7N2VC7lJnzpy2pRQkDnLwPpGEZJop8jSl19w8e/asFCG/REGh0KE16m/rhb8AhOxUFeW7sOrE6zZCOpl8DcbEOdPCOSu9c+Y8Xxwbh1tmzjwmQ8jPwWfihWtGD4xFuCVei6L5CUraZpPJ36EhRzt+g2g8Pw0lkyiF8MmpqkfSCEhUSlO6vZkyw/pxekKnHXH8gY6sonw000YWKJR5mPx283Q+XUkcxAhrd6fiFHmotFV8SfGFbcfa5FwppVtRv1u8XjOoyeTvmyla1FZBHRJxXCOkZ88+KpNMfhcKPCqM1Y5ijQT32oxKiIRTDoTY6SOPjFrDPQlNjZFsgmfXjuWP64TKYg+KmGVnz54l3M6kA4W6spTmm30eEFAqoM3++aIXNYxAOtCB73CakJbKPEpuQ3Gw0owZ+2lICYlJAaJHUHgqqnctCpSMSunD+LeVIuSWSa3et9VL6VvFazUD6qugp2XcRsGtXkofbDVveHL4UiaZ5CGV7fLWkeAeQx5+HzJexd/XC9/YKN2bovTj4jrU+fNnqory8wylO8KNbdR4UXASCf922aJE4iRxzskCwkKRDMVT0xusMxJOcxHCbkokjhfnOJiwhJDzM5Te34ozx+fHv7+K8r1mUVkSEhMCWNtxihzCI0Ua/Fz8mzBqYcXi2bM7LjAE/rqZ0sXRNUXpUsT8imMB1PNIU/qpNKV3Y55WlqQoeAl5jDv+n5ClaUW5KU3Io3HrgfBmCYQsjIuHB5C01EfIGs6dN5hDlOiYjjrnWUrPFuebDKQU5Wf7n0WMhMlfD6BuiTj+YAS+W1lKH2x1wuLf4Vod/ceVnJCQmFDAckgTcmszRd5KokzNLKU3Iy5dvEYr4BgPCiTO4gnLxaL29yjL9wZKn6FSenaKkBUZSne320l9/9zhBpSl9LE0ygXMmXMOr9xIyNq49UBCRbdJTSReLa5JxM1HHplAyzzUJ2kV/RFJyLE/mKH0wsls44YGyllKd+EEJK4pkmjTU5PJS6YTpz/RQOcgfMeaPZvos0NY4lSeqiSeYMjNmPHUjKL0xnHkzQQOT57ajOSdZPL3146xhohKyI/CjWDUNSBQGilKjfpMTmxAaJabTSZvRceeKJRQHBsndTQQOgytTRHy6X+GlrVKyOXNLNKIfkFtmcfdSAtkKP1QmhA/TAwaNa8o0TNRCfkTwkTF+boNOJv7kkmeGCWuJRI8tzAk9ZZmJ5GDFWi0nU0m98U55CMJE+myd7YRrSUhMW5AeeELNxZFDmW2hNJHoYjHWlcD1niKUjeMQx4lUBxQaKqifCYag45AKKOapnQHFHirl0qcD+uGsupDQ+Vk8kv1oZGgQpaEnYPEsZFgrEqpgUbS+2+kTSwk5EU4AWH+ZteIJIrDh8O5nTj8sWJRItGDU0jc5xAJsnNVQgZvmcZdiyYSqAPUS+lvllDaMPM4EvwOn1tKUX4tJtNJSHQdKBqkEnJHXGZnnIQUwUM4bo7HsYM2cM2cgVzZKUqh95BDDoNVqlL6gz5CPCicdjjnSGDZYq5w3V4vpV+/dfbso+rXku7pSSDaJC45CsLT0Cndm04m31c/thOgf2gvpd/LUPpgO1RL5H9A2V50iBfnGy+WzJt3CCJPoKTFa9cLP6UQcu9iSt8izvFEAnIvUoqSaka9QfD9zBCyK+wpO+Z3REKiJRb29ByNjLxOnIMhf7sNGZ7ifJ0AFia68jQ7yvcnk3vRBQj1O1RFMfBydLJWKEnMH1IhI32EfAf3LK4FUBXlByG/OWqeSEJa4fp2Y+ObIZ1MvjNDqd0Orx9RGmlKK60idzoBOG4kbLUKzwxL08Ia/7I4x8EEUI1ougyjAf4eVMOE41Kl9GsqIVeohCxWCRlIE7Kh2fOKJDy92Y2qfEpIdA046kcZieKXsJGAh0blQTWZbOnkawVUnGumOPnPCXkEIW4IBWylbESB8g43nSqSgnpnzYp9mXA/GULua8azc+uZkE2dNHtuhT5K4VjNtsObR5sSGlN3KyqiV1G+jtrhzWgePHOukAi5IrjoogPeuQnnsYoaQ5TOh6LOUPpWRKXAeasqyj9USpejz2iKkB08qa3mCN/f3akTf0wdxXIlNglxLRISXQGOyWlKH2z3i8mjFShV4WgcD/fHy8YSsq2d68IS7IQHx9+GVu62XkJ+30rxglpQCVnRbDMLHZx70KxaHD9egN4C54/+ls0UaiRY51JC7kknkx8T5+oEaULes5TSe5tRBJEiUintxTrFOaY74MfI9vScnCLkbRlF+USakB+idn6a0qVpQhwYCLg/SHRyi/wX+G5CeeP7hM8fzyLO6GgmfD5K708nk+8S1ych0RWoyeRHm1nFjSS0TO9NU5pKU/o5WDfivK2QovTaZopzLIIXLrQckchzZbsVEtOEXIwXOG6ziGiNXkL6oPTF8d1A/+mnPyVNyJfAQbdDHXFlnkzuQGs9ca52AK49Tek6ntTTYP7668C5ibr14hzTCSgLjG5X+D6nE4mLoawzlC5UKV2tUlpFMhk+47t7eniNfTxjHnFVp6A7eQc6FUSxwP/SPwYHuYRES0AR83ZuDb58zQQvAe8Aj+bMhFhoWtwuD7gomXwzTgHtWJ/tSBQL3kfIrjSlapqQ17VbSrWP0tNhuTfbVLDODKXbEZ4nju82YCWjh2kzBzAEyjeMGtqZTia/Ks7TDJlE4ng0E2kVocKfCSFbbpsGNbdx+gN3DaMBTSvSicS70oR8O03Iv9DlHmGdKqXbeP/ZsJwDBM+RP6cOabluS0SLIXxxPMEBEhKN8KQ0pT8bTzJQZAXjRVEJWZ8l5OJmmZ3IzERtl2aRIZ1IxFemksm1KIH72w7CIDmlQumyuNrnELyAPPxxEotCpRXlVJUQPexpOmpN9RLGu+9epCigfFoqiP6ZM+eARmq1UXBqgdKHF3VYL6cbQDjoQkrnZyh9Rbqn5+04qYB6UildglMEMifBW0efTUSLRHTIVCrsRoL1YF38PSNkt2zgLNFVIMEG6fmdhh42ErxU+LJyBYE2WJT+pK/BcRy87jJKH23l2GsluBYU3RJKXUQU3DKGqnMIZYQibKbQwqJQd956yCGHiuMnEqjwCB43dNaOWle9hLQQt8ybWXu3POc5R6iE3IbPqNmcPFOX0r29ivI9cY5uA0q7V1FekqL03WlCvoiiYaDsVELMFCGPRvx1xF034q3F9U+G1NMxWEekrLFObCp4xjix4rSL3+G0kCGkhBIWvXPmoJl57OckIdERkASiKspgM2fXWATz8bKehAymFOXCBSGvzHlMQgZbHembCV6W8Mh/L9q9pSh9oXhf7aCvVqL1gWax6FxpEHJfeoosKDjqUpTe3Iy/jySiWXoTiYa12nm5YkqvwrNrpsRDpy42r2uiTNdu4a7jjntOXzL5MpWQ89KU/jhNyPXIYUgT4oESwcYMxRfRIfX8tbjOiZZIQWMNfGML11S/odRvKilKUWRtk0pIDo5hlZC/ZCi9CKWJEWYKfw0Kw/UnEkf2z537dPHZSEiMGb2JxMkqIbviXuyI12vHKhQFY7nlV6Nc7s4qygdA4zTjoptJZO1nk8lHsoT8G2sX76ddLJw1azZigZudRHC/4e9/2szKnWjw5CFF+UfkmBPXGUnEmWcI2dmoGmOK0h9z5dNgbL2EESrLr5s1a7Y4R7tA6j5K8UJpZyn9ZIrSX6uELEHMfLqm7HbifkA1QHlH1NxUKGxIvTUdWdLRdx4UjlpLfLsnQ8jGjKIU4YfBpgi+W6X0E6lk8gyE8S7p6ZmHzReUXTfyDCQk2gJoDh6B0uDLHf5sF5xiaUod7txsI9ZZlCj2FrW204RwXlP8m2aCv0fGYV8yuVeltB8FssZTqAkxxIuTyT+E3PKo60USKvFVtyWTijjHZCO0pv/ElXmL5x/e1/1ZQs6JxvdS+gXUo2lV7ImflAgZvK2np+22ZVDacHKrhLwStWRUQn4ORZdRlHVZQh5VKeV1SSKDgJ8cWjz7iRKsA9fHOqCsEcGCzQQ/h7JOE7I+Q2kBrQ/VZPK6jKJcmunp+TTizHHyuwGZxfPnPw3foanc3CUk9gPKsJfSP3ErrsGXHj9XCdmI6n7IwESLtwylWZUQXmEwrEg4alycRDyi+PNmAuuRX6uWgPSZuBK2nQDp0kso3dEsYib83Y7plIoe1sT5Q3TUF9dcL3xzriUuvU7t6Tmnr41mwqHzc3jx7NmvEK9dj7Amy+tgiWYIuSRN6YJ0Tfk9ijlwnUhZTyaPLXLWkYUdKe2w5PBulZARnplJ6eIspVfxzk6EfBEJVnAyj6V+joTElOGvRxzxnBQhg3EKjVukhBTBa0Zj+ufOPbR3zpy3ZhTlSpUQXmgf4ztV0K0ksuCgTFVCLrtNUY57/OrHBmxIyGLFvcXFTkMRhJvYJeL4qQYs8zSlv2pHmfNIm5rTeUt4IooVbsUj5ZyQN9Rfb8GMGf+TIeTFqqJ8VKX08gwaaFOqpSndivlh0YIawfiIzxbn7rbUK+pGvHVEP6mKsj5NyAq0KQQFgk4/KsJeE4mTeufMmftErNwocRACoV0pxNw2eMkjblxVlJvFcQBitHHUBH+sEjIc1T8Z74vMaZTaxoCUaPCQp4vXHitQtxw1Uprx4hD8PkVp/2SUjR0LSiec8D+9hFyBZ96K744UXNymBeEKGA5dSj+HzM3sUUedgv9OEfIvWNrghaPyCFFc9kRs3o0E3wesD9fjlnXk6Mbva80b7oHCVhUlz6mQmnPxA9lE4uSFs2cfzQvCdRCOKiFxwCFDyLci60Z8gUInzz41mfyKOE7EsqOOmotQwwwh5Qylu8aqzHFNvnkQYvUqyme77dlPJ5MXgA5qdL+RcMuVkHszivIqcfx0Qrgp/S3kw0fdRyfCP+uaHwQhfxsyhOzGzyPlGdEkY/1cOxGsJbouNg1QIvgepglB/1eTR7goyrVIBOpDIStFeSkci+g7Ox6/iYTEAYmw4t2SON40pFsewjFUHBsHnh5NyIZWzrhGgsiWLKUPpxTlt+hEL849XqTmzEHI2+ZmFAPWsDSZ3ANfgDh+OgLx1yoh/xlLRJEoUNL7w+kmkNeu57AjpY3vIPwgUNz8PgjZBCdzmpD/pCj9aTqR+FSKkDeADhGfgYTEExooIgVHZpxiCxW5AU5WHNsI6BqfpnQZQt/GogA454mEFkX52XgKcTUCKBJUF2xG/eDnIaWSuuuII/b7BKY7oMzThNyCaJS4e5tKweeKjT3isut57LCioJOmdBH6taqE/C++R6hGiHyDbn8PJCQOOqQp/UYfpfsaWXJQCKGz7xfiOBGIx04nk5chKoLHeDeYr13hDk5cP5n8fTd5zV5FuTRyxonXjISfTAhZjwxDcfx0B6JIsoTk4jblyZQovA/fBR5thJ8T8ijnsgmpqISk4VdBU46w+iVV588fU3tACYknNMA9w/KMq6/CrSh0wOnpaZrNqBJyZiaZXBVZWuI8YxGuCGqc7RXdUOaIOUcXo2brC4/5KE/7KXH8dMXSo4+evZjSV2QRTULIFbBsI9pCvL+JkoiOwUkH2Zj7C6/VqBEDDRhwwspQ+mFEviw44YRnT2YTaQmJgxqLKD09Q+m9ccoNihlJESt6ehLiWIB3TUkkfpFJJh9qRleMVaBYuTJXlEvFa3cCpEOnCGFxfoBIYDmmEom/tVstcSrAu9UgdltRPpNWlF/zhBVKd2Dt3XB4NpN6XhuKO+K0uWOa0m1pSu/OUHpNipAfo4F1ltLXLjz66DFnhUpISLSBFCGXxFnjEPwO3eEbcZQZRTkrRchaKPC4jaCVtGM5hlESj6UV5QJxDe0AiUMqIbe2DDWsVRfUblWUpDjHVIJ3sAH1oCifRRx0ltKViAeH8kTsNp5/M6porFKvsKP47IjTxu9Q3VIlJJNByWJFAT3ySmzs4volJCQmELxIFqVWHJ8aKtCH1UTizfXjbj7yyASq0mUJ4Vx4K0XcTKAooJBaWZHh32wdS8lPNZn8ETaaZsoutGTvW0zImeL4yQRSveG0RFq8mkh8UqX0n0jECuO3H4P1i6Qb3M94nnuc8BNQyGvXbXxIxNqsKsrqNCF/RL0UXlJ29uyjkBQm3oOEhMQkIkPIp0PqZNQLDUHCRYqQ2+uTYaDosoSshWIdqxUeSViQyVEpvUElZE+jZKR6QRxxOplc1UlXFfDiqDUSt1lBoiSTyawxXg+eoZlMnogmEshcxSlHRYJLHe8cOWjjPquxCubDvWODAK+N68HazxCSTynKjaqifBf+DzgipzPdNEV4/4wZM74j/lBCYtKA2uNpQgbilDGP660lX/AvathH8sdZSh/sBheO6y5NJh9BKy7M35tI/CiLgkox64mE1wOn9LftOMrUZPIYJBQ1o1RwH7ifNCGLul2mtRl4vRpC3ot08T5CUJ9kCJtjRFN1O367EbeNjRH+hwyl69KULk8R8keV0i9kCHn9kjHUc38CAu9GIP5QQmLSgGp4USU68aWHhFmVfkZRkujnmKJ0OX7WympuR6BQwvn/jiw8rCfkgS+J6jmLYyLhaeiwVltQLKidgZjqVrXOw3VU0rNnnyjO0U2g/GwqkThDJeRHKUoXZVH4i5CdUcZit6mSSGnXx2yH4X+1+6X0Rp7Nm0i8G82I7xhDn1UJCYkpBHhYxPBySzRGCSxJJvf2UvofWGg4ao83LrxewusWRKciHKopRbmyVXYift+rKMuape33KspFUPrN5gnLuO5CRUBx/HgBxY0Gxbz5L6XXqrXa2/dBmUJ54x66sSnWSz2/HdJW+1A3BacSnspO6eeyhJyC5y6LRElIHOBIJxJvyRJyXxytEkYk7FQJKeH/u2ktQrlmKN2RjikJi5hoZIU2o2/CkrnodfgxcTygEnJOtkVpWijUfkr3IkxOHD9W8DrcyeSb+wj5JjbKFCH3Rxx05FNotrF0KuGG+19+u/bzzWlKc2hC3Evp17M9PadNJmUkISExCYAlBidWq2bHKiF7I55W/N1YBfVLYDGmCLm4WVGjVDL5shQhTcuthin0y8H1P27srFkvzBBSjTttQCJeXEXDg3FUNcSJAPXZuaVL6Z9SlBbwvPaXcg0Vd9yG1IlEVEmULYnPL+T+t6HBRsRv9xLy+kXHHnukuFYJCYmDCL3J5Lv6CHmkGQ/dibSrpPB3UHBqMnlrO2nYqLTYrDoht+xrp4b/dr6ZO3cOlFqrTSpMwffUDjrfRLjhuc89fDF6LirKrzLoUETIRmwKsIjbCaPsROo57ih+mxcvI+Qu1CNBBx5QJTfPnj1LXKeEhMRBCpT4RAJHK0XXjkAxQ9GqSN9v8HtReLx5Mjm4kNL54roaAcoejQCaZWKCa1YJuRp/Dws/Tekf8ffNNhfOi6OPJSHvFa/ZCAtmznw2almnFeV9aUKuURXFzVD6IJQrj/pocb2OBI7IWbOCpXPm1Nqs1Tare9OElHHtDCHnY/ORESUSEk9gIPuumZXbrmB8GO3BeGQLwhQb/F0kIVe9o5eQt4tragbEgC+hdHfceqFEsQaUNE0Rcn6mRcRLZOGmCblYvFY9bjviCAWUSYbSzyPCRFWUexEaGYXthYlSo+YfkyhKoM6cGaQOOSRQjzwiWPKCFwTZE0+sppLJm9PJ5LfVZPLV7VadlJCQOMiBcqyqoqxpxju3I7BooSzVWkTLb7OUbgb3Lf5dJPgdj84I49E7AU4QaUr7QMmI80KgTEPH7N9ThFSbOTfxdzgVqIpy04J58w4Rr5U55pgk+nciIUcl5O6oF2k3ue6I585Aec+aFaQOPZT/fMlrXxvc/tGPB3f96MeBcdOtwcCyFX8Q1ychISGBSI4vQwE3s1ibCRRQmDhzX4qQLyHbL02p34z64MoTCTyE/Gus1QvhSGxGX3CKpw2nLHcMEpLL1vHJfcmkAkteVZR/9lGqQ3mD624V/tiJiDx3hpAge+xxwbJ3vDO48/sXBWv+dV2QW35HoNteUNi4NTA3bw90f3hlqbTlcU5cCQmJJzjAq6YJqTRTus0kKpqUJgSV7V6BjMk0pVqrjElYtBlC7kB6t7imdrGY0hcggaXZ2uOUfCQhFTKMRgVwiKaTyY+lk8lb05SOgC+P6oq0yiptV6K0enDo3Aon5N4UpXaKkGt6n/Ws962+ZVF6cNAKDH84MNZtCoyh9YHOqlyZD3pDQd5iO1Zp5eeJz0JCQuIJCmROLibk72MtbhUmAu1MU/pr7iyFE5LSZVxJN/j7SMLwvpFeQk4R19QpUoQs4nVWGlynlYT0Cxyyy5HNiB6ckZXcTb4bpwI8K15JkpBHw56lvUjBzyYSp9Xz3PrmrV8xKiN7i/4wV971UoRCt9hew2ao4yEhISExY8biRAIOwx2dZhHyhBkocUKKqqJ8AHNBGaUovTks9zpqTCS4VjaZfDiVTHZFGaUo/TGfs8G12hJC9mBsRG+Ml++OuG5Y8FHNEiRQZQhZwTl2Sj+A5CDxPiLotneabnkPlBoo8oJbqSlz0/ulOE5CQuIJiBvmzJmZUpRVsJ7VBgopTriDrxb6dl0ULsjT+in9DX7XTKFiHGK8U4R8W1zPWIF4adRX6XQz6qaIXDf+X6V0e5qQW7OKgoSg14K2EdfeCDnfP0S3vSGzum6UIoeYQ+tBr2TFcRISEk9AoCxrJ+n13DlZC+m7H308IzoAShyhcFlK94Zp4A0lcoj2UnrVghkzeDGsbgAheOg+0ywqZSIE9xNZ3NyKr8V0WylC/pZB5ULU4xYyS9vBRUHwZN1ifeXKSGA4/ihFbg9vwL/2atdtmTglISFxEAOp2mlCHmrXigVNAMpEJSQvNpJAlEqWkJ3NQhf3bwKULr553ryuZhr2EfK8NKXrml2/W4L7wHXAdYdhk5UUIVlULUwnk6/pVky3bru/BLXSSJHDUtcstkUvOa8Qx0lISDxBgCN+itJVzeqN1Asv5lSrgXL1wp6eo+vnQjbh0haNGSD92AQo1dvN3OwES+bN65kwRU4IT8rJJBLBckJ4fe40IT6KTqmUflZVlJeK6+kG8rZ7HiJUDLcySpGHkSu7NNPjtdolJCSegEgR8st26n7A+gz/bmuK0s+Lsd7IrOxLJu/hWZwNxkcSpsVX0cm9fvx40TdnzvMzhHwTUTJZQh5tdT9tCxJyZs8O1Fkzg3QiEWQQaXLMMRsyivLn1DOe8e7UjBnHNupR2k2sdd2X6ra3hzs2BUUOK90cglXu/EwcJyEh8QSAmky+A47BsNZ2rEThcogHzxLyBnGexZS+JU3IZlja4th6CQtQ3Z/q6TlLnKNT5E4++anZnp6j+yj9VJqQbIaQTZyyCTlq8dodSVjHRD3sMK68s8cfHyx9/euDOy78ejCw4OYgv3LtTn3QXmAFwclBEEyoEgdWF1yqWS4r+SOjFDnE37Qt0Cz35hkzgieJYyUkJA5iLKpREHorSgXcL3ccJpPXQ3GK86QV5dQ+QvxW8/AIDkp3pJLJ88U5OgE6r6cSiXdnCPmLSunmKAGpVYRMWzJnDlfe6uGHB9kXvCBY9o53BHd8+7vBmlsWBnrJ5ok4RmUkKAytD4rc+ejtLjheRrfZ+wzP6yrXX4/Sli3P1izvVqvm2Bwl7vrNgW55q4tFf7Y4VkJC4iAFrFlUAmxlQYfNDR5NU/rjXAPH3RJFeWkfpXazrM1oniWU7uol5CviHO0AiUrpnp43obFDmtK7wdHjmuOK8w75bljcKEQF5Z059nnBsnefHdz5g4uDNTfcFGhlu5ZNWRmpZVPWcdSgNEB1IGqk6A1Bluct9oU7S6Uecf3jRRAET9Jt91K2YcsoJQ4pD60PNJOtzxXcV4pjJSQkDlKkFOWrrWqphKGID6YU5XPieABZmCohTisljhBEXGcxpT/uP/30lk2Q64Fu8RlKL0Ld8Ayl2xDaF2aPjrpO2xIWoYJw2uS444Ll55wb3PXzy4I1ty4KtHwhKGzYEhgjG/enwrcSJOaw9ZuDWmRJpaDb3mVrSqWXiPczHmgOOx/XaBS5go3EcPw9ul05VxwnISFxEKKX0rdmKN3eLKojbLG2p1dRPiuOB9RZs16JGOlWSjzqUJNWlCtLYePkVlg4a9ZsNHtOK8qtGUI2Y46oi86YLO+6MMF+FKGCvOAFwfKzzw7u/uWvgoEl/YFWKAdGdV3N+vaHA3tkIw/ra6Q0m0nBrQbOuk1BucKTd7bqlvcf3WKvv8uyniPeZ6cYMN0zDMd/tJHDEwKePGe7XxbHSUhIHGRYkkj0ZCnNx5V6jZReyHdfO2PGjFHOs8WzZ78iS6ndihOPEmTShPz71kMOOVScpx5og9bb0/OqTDL5rTQhxUjxjpf3Rrw7MlXvQCRNIrE5c9RRd9x54Te2akv6Ax1KGhZ0ZV1geMP8/wf94UAz3bt00/u3bvvr2PotnDrpXKFXuDLnMd6291jBqSzKl+3335W3FPHe28WgU3mxZrrVuAzPyqbtQd50LxPHSUhIHERYcMIJz05TuqCZEocsRylZSo1FicQorhd0Sh8hnBNvZh1HWZsqIbfVl4IVgWzHlKJckKH0RpXSB0GdRE2Hm80fJxgTnQLCrNOHMpSm0oryvd5nP/u1AytWnlTYsHXQ3ritxncLChrWdN6qfA9ry5nVV+pu5ScFtzIIJ6NZXc8VdCdKfT+PPrIxpD8qd+VM59srC9YLxWfRCgOmmdAs906sUbwOxF2/KTAs74ZcLjfKlyEhIXGQQE0mf9SqmBTnxQm5b1Ey+bhsTSCdSLxGpbTaik6JLHG0iWvUH5LXYSHklajFgnZuULw8M7LBXO0IlHcUuYI5VEIeUwkZQCXBjKK8ClUYo2vr6za9TrPZPSH1MUrgTByw2afq15tnbL7usM8btremgJjt6rqQC29foUOwCbjrNnGlXnArLG96fzQcB9UeR516GgFhjrrNrgeFIs4NseDwtNgqyxq71S8hITGN0asoH0Pz4Wbx4lCoSynd16soXxPH30bI6zOE+FFvyDjZT8sQshRhgvVzQKnzXpaUZtOE3INNYzyOy8jqD08HO1VKLTQZRoPhW2L6VOqW/2Hd9vY24pl5Yk11fTDgeA1bzK0xzSMKln9O3nSXF1n1QShlFKwai0IHXcPHuv49muXfmjPds/RqtSn9BMCJWkUziQbzYnPRbLZBc4c6bhItISExzYGaH1lKNzTjtCOlCF78SiHMMKUoZ/VROtxsPCRKxlEJWdF71FFzo/FIW88Q8i3ErCNsEJZzRJ+Ic7QjsL5hwXP+nBCG9PgMpR/u7ek5rH7djZA37a/C6m6kfJHqrlnsgaJZPVUcV4/+/v6n5C3/HbrFri+4/nrEcFtDjeO7mwnWgEJYYa2UfbrjLzNc/xNrC9Zx4jUjaJb7pUFveB82A3E+/KzgVvai7K04TkJC4gAGuvOohBRb0SGIJ08pSqFeAQO9hHxkCaWbWinxaCNIUbp8wdy5c0L65ByVkL+kCdkQ9bMci/LGBoFxGB+W2EU52P+kFeVzKUo74ppRfKq65Z5RShACa1xzPLtoV48Xx8Uhb7JTNYv9vOhWHVjoUMyNlGwzgUIvsCqnRrhj1fVNzFkoV14rXk+z2bs0mz3YqDY55nEQMmlX3ieOk5CQOEChzpkzM0NIppVjMgxD3JYSUu9VRfnMEkofDLv3jBpXr2iXULo3k0xmehXlJWiNplK6PEPII+hpOdZyspHTEuNVSvdlKF2ZIeTLqWTyZWKdl3ZQKpX+RzPZv7yYpBpnZBOU4e1Fv/PsyFzRPl63/a9oFiuAtgFtMhYeHX8PxypODUU2tEmz2c0Fx/vgypGRZ+A6Wsk9QbPYEJR+o7G4bsHxO25cLSEhMQ0BRZci5K+timGFyTq7U4R8OhrLsz4pvShDyK5mseaRZAnZkybE7FWUK1RC1mQp3R1lXYp/245Ace9v1aYo69KEXJ+pxb4f/vi77Aya687ULba0ZrWOVqI1Bc8WuK7b8SYRAdcoON7HNMtbUWDVB3CtsYQvRko5dIw+ollsTcFmn9IG/ZdrNhsMa5A/XkJHrG6xv+ZyuaeKa5OQkDiAgEp8KUp/GmVUiooyEij4pcnkPpXSnwQzZjwZY2874ojnpAj5Hf9dgzGNBCF+KiH3pSndA8U/pqbEYUlYcN/IJkUFQ5XSryHuXby/scIw/WM1k9lxcdjVzfcghvx34rixgEeYON7bNYtdO+hVffDoY1Xo4O7L1XUhh+/5iLpp5KyFIBpHs9y0YRjPEtckISFxAKGXkC8upfTRZpRGXdLPjWiQzMehLjkh1/G6KE3G1gsoj2i+ZvRNQ0Gtk0QiSCNdfubMIKMoBZWQX2R6es5qNwu0E4DP1i3vkUZKEAoTdIZmsa7TErpTfYnhej8ouBUdTlFw8VhDp0od3DsSlppx8KBz8hYz2omAkZCQmKZAeN8SQh5sVhM8UuLo7hOFCC6cPftEhAzC6YnIEnFMV6W+1knP3GDFO94ZrLz8N3tW/v2az4v3003kis7ZIQ8+SgHC2tUdf69ueR8Xx3ULa4vOPN1kn9Ys/y7dYvtwMoCl3Wg9Y5UwBHGLYRij4vclJCQOACCJJ0PpVp4WLyrPOgnjvIezicTJGIda4hlCyl2p491MoMAPP5xb4X0vfnHQf975werrFgRGsRyUN2zZZ6zb9AfxnroJw2Zf5VmRDRQnok00i91rMPYWcVy3cWexeJjuOG/XbXZzkVW3wnEJLr2Zpd2u1OgXd2ezEEYJCYlpCqTOZyj1milxWOjc+UnIvVGfTTg50fEHyr1jaqRN4UWvkjRYNm9esPQNbwzu/O73g9yy2/fX9kaRKmfd5iBnOuVVxWLHESPtoBb77f0xLt47rPPt5B3n+eLYiYRm+y83LO+KglsxodDBpY9HofOThc12F93K6eK1JCQkpjEWE/JiRI20U1scjR3QVxPjUsnkDzOU7m4nMqVjCdujLUOtb0V5RJ0164Y7vvkttYASses2c+VdX9u7yIaghB7V3YmhNixr23N0y+uLTc1HYwbbu3tkZS3Mb7JRqFSOM0z21YJb6d9fm2UsPHqN/9+btysfEa8hISExTdE7Z87z04QMtIoVD2us7Oml9OuIL1cV5R+dODXbFnTYmTmT/3vXa14b9L/v/bejg9DKGTOeUdq37w3FsPCUqIAg3satqN53A+K9xfscL9C9R7dYJS6RBopcM72bxHGTDawzb7nvLbiVW3ST7TQcf5+43mYSZncGedu7VJxbQkJiGmLZnDlzM5T2t6JFwHv3JZN7VEIuVyk9PZNMrkCGZLPQxI4FChwddlD86vTTg5WXXBoUV+f2Gaz61Wi9aEOmWd6ahjHQIU9dcCubQDc8/k7HD1Am6DRfox5GK7+as9P7qThuqtBfrT7dML0X6La3QLe9hin5jYSHK/LIFe8v4pwSEhLTDGi+kKY0BSXezEEZlXVVKb1ZrdU72RB2sR/1t2MSUCeHHhqk584NliH65Ne/C/L5QlAGVVEZ2a4Nbzijft2a7f4grl0ZhNdBcauXLFiwoKsNjQ3Tew/qmTQKPeQOQtvblbfcT4jjphJrBwdfXmTVRVDO7VIs+DvuuLXZ9eJ8EhIS0wi8+TAhi3iooKhY62R/bDchubSi3JSldOf+2HLEcDcY047w2ifoMn/EEUH6qLlB/4fOC1Zd9bdAK5q8ww6cmDw6xPJM13Vn1q+9aHkv0yy2KS4pB13iNdtbt7JUml8/brzQXPf74I+NBpZtTfF59+VK/qvFcVMBTXNnDpTZDwusshVcubjeVhKm72fEeSUkJKYJ0KQBSTytyr+GFjeyNrekKS1nKd07Xj48KlzFlXgy+VD/xz+xby0aFA9aQQEWeEhbwCq0hzciC3GxuH5Ej2iWdy067zSyMvEzXlfb9r8ljh0PNMu9ocS73o++JhJ0dNvboG3c+LhNZyqgm87bDdu/2xzawGPMxbW2I1D+mu2tEeeWkJCYBkCN7XQyeX0rOiUSlZDdaUSphEpY/H27grHYODhFQ0gldfjhP13992su0y22exDNgAXeGX0rdcffl4vJkjQs/x2G7T0MS1hUQhBuIZsuMwyvK0ktoGl0mxlhiOEoqZWR9dYEQcDLFEwF1qwpzSk61Z/rtvcQkpYaUUDtCmLS85ZbuvLKK2W9FQmJ6QQUjFIJ+Q/asLWjlMeVOh9KlAEalp81ein9wU1z5vAyt1p15CYLjYobWLg8u9Bij+RM95XifQAoSqVZ7I44pycce2iLplvsYnHsWDDgusdolrc+rmIgj2SxvH+I4yYLOdM5u+gOrcHJoFFUTaeC56rZzFk5MjKuImMSEhJdxKJE4shUZImPkx5pRyIKhScPJZMGileht2a0nvzGjXNzljsUZ+GGlnZ506ZNsYWbNMs/BynxcZYnV0aWO9KNBJ0Bx3m7ZnkPNFKSBbfWU3Miaqy0wlrLOk4z2Z8Np/oo6JBGm6IoPCrFG2qq8M2aIq+utu2jxWtKSEhMAW6dO/fQNKXXQIl3NVywgUT1v3n1QkK0dDJ5wcKenlHKQCv7nzRsbze3mhsoGk5VON7vxXH1yG3Y8EzN9JbHZVpiHlAEmuU2nacd6Jb3dcPx94bJMo8T0ECGUwkM0z1LHDdRQGVEw/Y/CasZzSiaKeV6gQIPTxXrdNtPIQqnkfKvOZLZBt1xXiJeW0JCYpKBqoTZZPJvsIwnUonDAudx5bVCW3qWkP+N63kZBMGTNJtdjeQdUYFAOFXBLXL2bnGsiLzpvafIhvbGxUhDIRlu5Z6cPb5oEtAmcc5VZJTmbW/HqrL3PHHcRGDAZCcVnMpNBVbdBYdwozU1EijwQW9on+F6vVDQhlP9ADamRs+On4gstk1zXZmmLyExlVAPP/y5ajL593Y58bFIPQfehxBFSr8OGkdcSz14Te+ya8eFxXF+3PEqulXdT8XEoV/XD0Xt7GZx5e66zUG+zBavHFk5ptT5uyzrOeDj465hVnno4Wo0VhbHdhOoIaPb3jc1m23Cs2uUmNRIcGKodQuqrsub/lf3dwqyK+/CiaiRIsdGCiopb7F3iuuQkJCYJKCJsErI3zmdMgGcOBQ44snD7kGFrKJ8VSWEiutohJzlfaxcGdnXKB4bUqvp7V3Vbpq94fpnlSrD9yN+XJyrpsgqwSCsZsu9QBzbDgbMoZPyJqui2444NyQMk7zqygnsqJN3nPcYrr8C14qL1BEloqhgdedtdqPoONZc9wxw+40UedhE+hHNcj9UP0ZCQmKS0HvIIYdlCLk6CvcTlfB4BAoc1jckQ4iXUpQLe3t65olriMOGXO6ZusWui7NuI+Wj2+554tg45HLBU3OW89dmZVxrJWa9kYLlddRoGTBs9n7d9h4DhSLOC8G95C32BXFcN5BnbD7arg16QztQ1TBu8xMFpxoofd32R7CBNer2gyYZTRU5z1SdmAJkEhISTYAQwwyl/5wIThzKO2wmsSFNyC/ro1Dahc7YiYbtbY+jBcKwN1vrkG8uVqvH67Y3HGc1c8fnuk2BZrJFnfbTzJed7/mbto+aE8LDHFl1b75kv1UcNx7weuOu92XdZsPgtjuxwuH8LHrVRwpu9R9o6CzOHaFo+y9CQa1Gijx0Qj9mWN6YTjESEhJjBCoSpild0CrtvlPBhoBGxhlKt6iE/Ekl5EXitduF5nhfbNZ30tuwNdBN9ldxXDtAZAks0UaKKVJORVbdlys53xbHxgENiJFFWmuqPHpOZE6CdkFxKnHsWFGwvTcOetU+FK4KnbWjrttIwGvjVGK4vq67fssTDcIydcfb2Sh8k//MYvsKlvclcZyEhMQEAQWwVEpv6macODaDsCfnrhSlVy8m5HXidTsBwgV1i62Nsy6huAzHf8Qos/eLY9tBzvcP0U337rgkIQgs9pI/tN2w2uviky+X52om0xslAkFg/Wq2ly0Whw8Tx3YK7gS2vMsLjn9fJzQKNi7E4xtOZYfmuJe3G/uNUw+aMDc6HXHKxeHX/4Y4TkJCYgKQUZSkSsjCrsWJK0qwlJCosFU6Q+lbF8yYMe5KglrZOVNH7HgM14y0cs10i+Np+pu37TcWWOWBuM1Ctxi3WlGMqx36ZtBir9Jtb1cjqxVS2bw9yJedcbWXK5VKz9Ys54ua7Tl4BrXQy9HXEiXyJ/AN0K30ry07bxLnboaBQfcY3fI2NVLkdWV5vyeOk5CQ6DKWJBI9aULSrQpgtSWEBKkjjgiWgUY58cT12aOP/lx29uxRTrKxQrfZdZwqaECrQHHwpBbTvUwc1ynyZfYjWOVF1tiixfV5USjTTa9cWWqagq477NPg1uPWDGpFGyP90N9ffbpuem/XHe/Ooje0l1NObVrhUN78NGB66wtO5euu6z5XnL8V1jrOPM1m6zGXOD//PHi9GnaJOE5CQqKLQFOIFLrWd0OJz57Na4Ive+Urg9Xf/d5Dq/79n/eK1xsPtJJ7gmay9XFZmGFtlR1Fz+PNnMcDw9s0S7PYsjgFDIGFjU0lb7K/VqvVp4tzAP39wVM0272qWRkBzWL36KbLe5d2grzlnWy4lasN238MtE2cxd9IcKIosupuVGNEcpA4d7sABaNZbLhRViina1BB0nR/IY6TkJDoElKKcmyakBVwbI61oBWvJ46mDocfHmRPOCG44ysXBvaqAdQD7zP27euaJQ6geJXZJHacl1u1mIoSteLYsSBf9E7WLLYxjtuG1OqNjOzJme4lja57Z3H4MN32jDiqg9dLN5lxdwcVFkul6hw8i0FvaB2aRTcqUdBIeLZrGFJYcKtGvuye12jNnaAM/t/y/EaKvBblszHI2+5vxXESEhJdQJbSF6iUrrx9HNEpKtqqHXlkkD7mmOD2T/9vsHaRGgwObQhK6zfv1h3/8+I1x4Ncye/RbKbBgScqDMh/j/HeB8Wx44FueR8rOP5jg95oRQXRLMabUJiVdbs0h104ajxjJ2o229lI2UZhfrrN2urRqarq0wzXRX0ZHc2bm20wovD6KDws07tXd/wfrdKtjsM+GwGfS95ibpwix/3lu1CnRkJCQgBC/zKErG3VYzNWQgscbdWWv/ecYPV/bqy9uEPrAxucq+UMlXy/R7zueACe2ayuaxivDAmbQJRW6joRx44HF1100ZN12/2lOVTLbhSvC4EyB0ViON7unGl/tn583vI/AYXWaGxIhezTTLdp8woUt9It63WG46tFr7q7WdKSKNwq5nXFhx7TbLZIzMwcL9YOsqRmeVajE8d/Nyr3d+I4CQmJcaC3p+dk1PQekxKP2qolEsGys84KVv3pKjgWuQJHW7UoAiJvubeI1x0PeGKLxVbE1VWB8O7ztvd9cWw3sGbNmiN0iy1GvZU4vhwCZV5kwztzdY5LzWTX1pT86HFc+VneA5pbiS0qBR68yIb+gEYPsKgbWfZxguuCeimwqoHMzFLQXrmCTrC64NK8zQYbRfjUqJVNSO2X1IqERLegEvLKNKUuolM6UuKKEmTmzA6WIDPzTWcEd//6t4GmF4MCrK06yzCyMPUup2QXrMo7i241tjoht8Ytd+OAaY7ZadcKhj10tGZ5GqzbRko5EvD05cq6h7Wy80XEpOfLrBgXk87L7Jqej78Tr4cTjW55P0GRKtBJnShwfA61uuLevZrt/2Jt0Wm7/EGn0HWHaDYrxilyHtlj+b8Wx0lISIwBGUJenyak0pElriiBOvPIYGlPT3DnG98U3PHdHxi5O1fbBVimDV5cHjVie9t1qzv8K7BgwYL/yZtuKo4PhrJAxmTeZFeDghDHdxNry+5LC27V5THkDdYCAc0ShkfuzJvOjbrlbWsUY41115Sff3P9NarV+w5FAo1heyYSj+Luu5GAvgmjY/YUneqCbtMojVBwXYrmHXHUSm1DYb8Sx0lISHSI3tmzX58hpIrolFHKupGAQjn88CAzZ05w9xvfFKz84SX355bfccXgvn3H6EMbVoBiEF9aSK3+tJdGbLO4hrHCsNlbNct7tJEyjK5pOJUHdLfScfjeWDBgum/WbZ93lddsNmo9EChzOEfj1gyJkmWiQlncerf983Tbzxfcyr5aZEnjE0gjwd9zC9/283nT+0B/TDhkt1FzQntOnLOT171x3MvFcRISEh3gNkK4EkcBrFEKu4Gos2ZxJX77a14b5H7042Bg2YpVxQceejvmMoY2Ha1bHmtEFeClhfVouJUfzJgRPElcx1hQc/J5t9VSxxvTGbhmznLTk9mwuGCzd5W84c210rONlXn0TMSfRQL6w7C9nbrtnaaz6usLrNqLsMpO48GxYYB6GfSGfN1hP+xWo+h2wcsPNAk/xGeXN71xJ2hJSDxhkTn66DOWJJMjLZU4LHCEEh5xeLD0pJOC3CWXBvn+Ox82tt//c3PfvkQ0n2G579BM9kDcMbqmyP2utSozrMpb8pb7UCP+tabEhpBssmegzN4ljp1oaCXrnJI3vK3RptaOhLHwD+YtN4V/Ed3RiQXOefDhDej1+bDm+H8C7SOucTJgNEkIQuu6kOr5pThOQkKiDaSOPfbdS+fO3QbH5ijFXa/AZ84M0rNmBdkXvihY84OLguLtdwWDwxtXFR569G3inJrtfQYlSxtZjGi6oDvejm4pFGREgmNGazTxWpFg48ib7p25XO6Z4vjJQK7kfrjIKtubRdM0E/S6BN/ejIIRBc8eyrHg+HsRjpi3vTdO5mlERC1F31vfKM4eGxN4fsNkPxfHSUhItED21FPPyT7vefeHVQcbChQ4knmyL3pxcOeXvxqUV64NBofW31/Ysv0yY9OOhsdz1MxAidhGlAGvF4JiVV1ydKKyYMGtPNTI+odgDegdqVnelHafyVvuew3b34poFnGN3ZTIcYiaJprJNMOpnD9VG1g9Blz3GM1mmxttRvtr31jsh+I4CQmJGODFzr7m9O/1HXvso2jgICpvLqBQDj00yJ5wYrDic58P9KX9gbv5nkCvrMvl/fXvEOesh2a5V1W33DPqhYXAssxbTEVKujiuU8BZqlnerYgNF68TCc/wtLzbi8XiuK83XmDTKTrVIZ5u32Ct4xUoQx6CyKp23nS/OdF9PTtBuVx+HmrFNFTkYeegVglPEhISIfq/9rU52Ve/+l9L5x3Dy8eKFEo6gXT6I4LMcccFt1/w2WDg1kWBuX5zUBjaEOQt7y/5cmWuOGc9uOPR9hbEda2H0s3b3j8WtNkjsxnAxaOgUxxnDHqhXBnZrVv+h8WxU4UBwzll0K3muZ+gwYmlU6mdOIajePD7NMv7VTcbT3QLYWOJRxrRbfgZ6CPDqnxRHCchISEge+aZL1nyspevuv3oo4M+RXk8B44olCOPDDLHHhvc/slPB2tvXRQUYeFtfwAOt/X5kvW/7TQoXu26z4XFHWcl+5u24d9xRyf09/c/PW+7y+OqBUKwhoGysxyd6cXxU4l83lIMt5JCB6HxKPOoqqJus0cM1796wHFeIV5ruiBv+y/SY1q91Zovu4+hvII4TkJCog5Lzzjj7L4XvGD4jqOOQiPj/ypxlJRFRcLjjw9uP+8jwdqbbuUvV3nj1sDmypgtWTtov1ycLw6G580ybK+/VjtjtPJBcwTD9i4Sx3WKvO2eZ7goUjX6qA4BzWA4/q5uF8fqBpAcg0xKzfF3NVJs7QjGFb3qAwXLv95wKqfA6SteZzohz5o3X9YttjNfZh8Rx0lISNSojicted3rvrhk/vz7+5MhfQIFjoJWhx0WZFCR8LyPBGv+c1Ng4NhbGQmsWrzxQ5rFfl4qNW+GIIInflhsTVxWIxS55rDviOM6Qak0cni+7OSa9ePE7wbK7vKVK1c+Qxw/VVg96LxYs72LDIcNx21A7UjowA101/fzZfeCuw2jodN5OkFz/TPiFHmY6btDs/xzxHESEk94BEHwlL7Xve4nS445ZvcyKPCoJvjMI4N0T0/Q/8EPB6uvvR7OwMAY3sgVOe+K7laHxhrlwRM/bG9NXKgdd4I63tfFcZ1AtyvfKFfW7WnEt0Kg5Azbe0y32bvFsVOBguW9MG+7lxVY1YMzMq44VqcCBYh7LbLqasNkXzWHhvbH8k835E3nPVhrQ0XOM33Z/brj8IQyCQmJENnzznvWktNO+/uyY+YHS6JEHtQEP+qooP99HwjW/PuGQBs00diBVyTESxbGHfcXLetl4nztouCuo5rlrYqzyKHI87b7TXFcuyhY1nGag36TjeeP0r3zlpPtr/ZPSvp5I6CsLZyOecf7fYENVbHeZnz+WAWKEaUQBrnD0CvpjvdTzXVPyOVyTxXXNJXQTHZ+nCIPE7m2I3NVHCch8YTFLe9+9xHLTjnlthXPmx/0zZkTpEChzJ0bLHv7WcGqv10T6GUnMIY2BEat5RlPmBn0qnsKTuWv4z2m684I0S1vZZyi5Q2ELWfM8cL5kvuLOEcqhB/f2dAureyNSlSaDKB2ScGtvrLgeH9EuB2UVLPSAXGCOPBGWZBxUsvg3MirH2qmi+iVG/IWeyc+D3GNUwHD9j7DT0oNFHnosN2IUrziOAmJJySWnXrq3GUvfumSO+fNC9KHHxakE0qw7B3vDFb+/o+BVrIDAy9NXWd5njziDd2rOexr/cH4HWZF35+tWWxFXKw0olY0m42pN+Og779cd/3tzRQc27AFiTD/WjTJSTC5DRueibIDBVa9VrPYTihvrLORBdqOaBbbrlnsPhflcDuYI0qugXIsuKjT4uu6XbkUSn2l7kyZUtct9l2ESTba0HhWp+1VixNYRldC4oDBkle/cV7muONW30kUTqMsfdMZwcrfXhFo+mBgoBJhHaeMF4qnffvDlVzZ7hqXnNuQe6Zme4ugUMUXFsIVreVetWDBgo5KyeZywVM1i90Sx71zhVBdhw43m/ImO1UcP1FwXfdpuuV+WEctFNffhVK5vNBVA4XVjvBoFAar2v6+VnbeVHD8dKkSKeb2FTquz1Pfq+sCf+O2Wpy246/SLPdy3a6cu9KZXKWum85vwkiiUWvlRcVs5kyHpC0JiSmF+qpXHZM9et7KOygN+l51WnD3Zb8O8qtzNQ5csGALrFLrju5UtLtMs+tKT7PYtWG8+CjBdTXb69X16qHiuGZAGCGvnx0T7QGlBYWQL9uXIVJHHN9tIMxSt90va5azEjXFsUGNJxIlEihx3fYeWVMun4jrrCyVDtds9im0p+P1U4bWd6TQ/zsvHNmbuTNbs9lDhuNbqBiZs90vg9JwXfe52CzF++wG4C/QTOdfcGo2UuT8O2G6xXPPPbejzV1C4qBC76xD5i2ZP/+uVa95bXD3JT+uKfDKuhqNUvfigA+HIrTAjzt+Nle0jxfn6gY0x/t9deu9o15YiFnlPTP1Vhmi9cjZ9pE5i2nNrPFaYwXfLTrDE3Y8Ryf5Vbb9ogKrfjdvM7fgVvZiTc2onk6l1lPUy4pJTHgGaCSB8sCgIqD8GinFVoIxWC/WzWuA22yv7vgParZXRbkD3XK+h9ruOds+fk2pNGflypFxh2/iuWmWm46L1qk5p907xXESEk8YLJwx4+hlbztzpfb9i4L8HasCHXwjFEuDFwYvcE3psGvAZYtzdQs50/0BOPJGlmOtpCy7H5l+4rg45B12MbrBx4UbolZHzRp2vyKO7QZU132aZttvM1z/Ks1m92AjhHUZt57xCNuwGfHhsfeBjUqz3UuKrFrkkTDjSPXHONwDvhNQspHg//MW26rb3krNZv/SLf9i3fI+trbsvW2g5Lxi0B0+ZmVppKP8As1ma1AwrdEaao0u3IXiGAmJJwQWnXXWM1f+8c+3mf13BgZC2xDGFfNS1xr+VtFc4XI45sS5uol82T1Pj+nW898Xt73a4FAcuu1vadbKDBZq3mJrfP/eUT0txwNz/foj8pZ3gW57i3Xb2wn+O85h10y4smxD8Zcwt+vfgyxIcS0itLL3PM1xLjRc34CCxDPlUSEdrq1eMDbi1jEXTk/YkMGxg5aBE1ezvXW67Rma7S3Xbe8mw2Z/1kz2cyR56Q77vOaw8xG/b3hDb1g7yF6lDdovRxSPbnkjJX90hcrohGDY7O/iPUpIPCGQL5Z+UXT9fUVQDk1e4DBOdx/C/lTVfZo4T7eRL7JTdZNtqIWVjX5xOX1guj9uxWVb26zn4Lgfl+4P4Y5FtxLkLf+94vixAPHXA5b3Qs1hP8tb7qBue3tRAKzRptRKoKDC0MM9mu2t1mw300yZcwexxVLWtm1t14ZBApZuu+fpjpfRLfYINgz4Csay3maCzw1zYtMAFYLEJvhBEE4KJR+VEdYs9qhmeQ/olrdVs9hGzfLW1YShLvqoeWvOXf5MZFMJiScW0CAgb9rfNFx/T6PjaiS8we/Q+qDkjzyq2f63WinObiHkc4txIYjYWDSLLW3VLzJvef+HeOpGFE0kUCh5070hlxvfKQN88Frbe5tu+9cj7A9KKwzNHHXNVgIFHkav7NAsdqdRdj8RhmXeEvd5oUuOPbxhn2aNrXwBShEgWkezvKt0x7N1x9+FDWgsMeydSmTFQyHjeUVUDTZyfP9g2cetAePwu7zNvirek4TEQQ2t7H6m5A8/3MjirRf8vlwZ3qGb7PPiHBMNdLSPU+SgJ/K2e29+ZGS+OC7CGtM8Nm+6w83uEVx13nK3FEx2kji+XRQt72TNYl/TbX8lIkZwvbHEf0cWa62hhrcjX3Zv0cvs3FxQiwQp2tXj8xbbEbcxQNnpFtuoO/64KxhiU8pb3sdzlnet4fgulDmUOpRrpDjF60+VQPlrFttj2Oz94n1ISBy0QNJJuTLMHW7iS1EvNU58aGfOtD8nzjEZgGVpOF7DsqU8UcXxkVLesP40Tg6a5f6zmTVZc9KNIMmp40qK6EQPxaHb7jWG4/FGD7W+lqPX2krgaOXZm6CLLPZAgVX/mi/ZbxXbqumW/8O4FHUIp48sV0V9nPpx40Xetl80YLNPGW7lL3nLdbEGrDVyajZb02QId35bbHeu7L9GXLuExEGJgYL1Qt3yfJ7+3qQrO4/Xtb29ubL1NXGOyQI/5ttsR1xoHjYizXGXiuOAfNl+v+F4u+PGQkB75Mvu2naTSFC/fK3nvUA3vUs1y9MNx38Y9AfPKozZLJoJKJ9I+Wu2N6I73uUDpnnSlQ1qnKAjk2Z7WlytFa5MHX9PwfY/K47tFhACWHScebpbebNuez9BPZy8xe7Tbf9Rnt4fhiNGTvGxPJOxSKjIHxkYcI8R1ywhcdChNDJyuGa6/bVOMI1fMnDi3NKqjOye6rZZ4Kw1i5lxnHBIJWzV7MfXOkcZXN32tWYOTh6dYXs785bbtOUcskcN0zzWYJWPII5ZM9mDkdJqtkk0E85/b9wCTvtR3WYDmsMu1GtZkrH+hwKveeLF9hXlPgObbXDddVQcO1EwjE3PWl0o0IJVeadmu7/Im+5yw/aZZnv3wEjAJodoFRgN+Az5M4/53o1H8Dw101t/h6bNFNcoIXFQAY6snOleCeux2TE4dDI9lrfYj4L+/q4e0ccCzfKugBJopABwH7gfzfJ/Hf39giD4f/myexmUeKMxkXDu3fL+ItIXEUpwXJrOewqs8kfD9jjPjnWMhfuGYC1QtrWoEu8Bw/Fu1Uzvo1abnYc0m/0da250T9HcqA8jjptsoCF23mZv1crOF3XT+53h+LdptpdD1AkaP6BxNKJUaslInT/HRsLpMZMNgO4S1yMhcVBBs7wvmdX1u3GcF1+ESGBpQlnlLeePqP8hzjEV0C32OsOpPBanPBEmB6qoYFWOw99rZf9NBVZ9MM4hCOGbmVPxSow9zlGKNnRoXqBZ7FdFt3I3aovA8RiXFt5KIuclj9Hm9Is3nLfZb7FGbDj1124GreSegHvk99rkOoU24+onEzw6qlyZCwesbjpvR+9Tw/K+qNnsSs1m9zULpWxX+InN9BaO7Bt/BqmExLRFkVVP1W3v3tCZNupFgEAZgN/Uy2wRemaKc0wVfN8/BIkjsUrMrhXuQuo5LLK86d4dV/4WwsPb/OHdSDrB/KVS6dmDjL0KnYzyJltjuJXtsBpR5nasSgabDvh7XqTK8XfqJhsw3OpnkIAj3l87yJvsq87Ixn0Ft/FmEsb4l0vV6hxx7HTEQNk5xbBZtsCqj45lg6wXjOfJYZb3+4umwQlSQmJCUCwOH5YvO/3NlBskpBq06VgGVDfZ5+JoBQheZCTeaDa7CUkjcdY7xltD6/fkTXfJ6kH3zQWn+h3N9vJwWka8N5Ri3HVaCeYAdVIL0asOa2V2fdHxzjQM41niPbWLNaZ5RK7s3N6M72frQdf4F4tjpxvKrvtSw/H/rlnuw1EYo3gvnUr4mcJAuVC8noTEQYO85V/c7KWBhR7ylcOa7bfdIHkykR90nq9ZrMJPDA3uAYJwRJ6m3UQJI3tTs7xHdcuzNNN9GFYzns14wuciWoNt2Ir/31dk1RWa7f0AnX3E+xgLdNN9c9Gr7o47HdRS0/371lrsVeLY6YLVpdIJhsV+ZjjedkTddOL0RGhm3L1D+ElyZGOQM72zxetKSBwU0Bz/TYiyCI/eDSWMUHkgb9vTNpnioiB4MnjrVg7MZr+r/xsokvGEx0HpIyEJRbjMIZwG2FbDqcDSPAcZqeL6x4r+oP8pusn+1qxiI2+yYbKbRkamHz+MTNScxb5TYBULJ6pGdVLihDuyeT0db5dmuZvj0/PRzamy26hUThGvLyFxwIPXoLbYHc2O5LWXZX2Qt71fxkVvTBcg89Jw/A2tkpgmUqC8o7DDguM9ZFjsdsPyLija9vELSqX/Edc8XhQqleM0i90b57hFFmmRVR/TbPeT4tipBO90ZPuf1G1WxLNqRevVS0SV1EI7/UE0XM6b7I/u+s37xL+FwBBB9i5K5orrkJA44JF32Ocj2kD88kcCKylfdvur1c4aNEwVdNO9rOQPN8z0nCgJ65fw9HTEfWu2V8pb7u+LJjt1oq1gzWWXNAt3hFNWs91SGIM+5egvlZ5tuO47CrbfX2TVPXhuzWgRUfB95acu2xsxXHaJ5ro8Lly32DUIWRT/HgKqBrVoBgbMhLgeCYkDGmuLxXmazexmnDJC6vJld+MAG3uNkckGYpQ1y1vfjCrqhkT0C4ppgTrRHc/SbHb1gON9VHM3TkrSiWmuPyJnuWZc6V0o99pzYL8Vx04Fcrb9hqJTuVG3axZ1Jwoc94JnXWTVB/Im+6vmVF4czett2jRLs7074mruYJxus+v6+5sXT5OQOKCAGiO67V0a98WPXhwo8pzpT0kNlU6ged7zdLvyvrzFfora1QijjLNQxyNwqkUV97iV53j3GKzyb91yP553qs8X1zXRyJnuZ4veULyTs5YA9EBhijdio+ycgsSqAqvcC6WK5yiuNU7wt1F5gyKr3pgv228cNb/rvlSz2DD8EeJ4CCx1hI6K4yQkDmjki/aLdNu7p1niD0Lk8jYb1QpsKoFkHF6IyjRfoJnO+Wj1pln+XbrjVzSLPQTl6m/c2pGl10owF6zHqGSBZrr36RZTB9nQp3TGTkR9E3GdkwHEtudMdyli2cU1Q7DWWuy0f/NklRUWkXcQSeReUXArG0GHxJVRaCTYiDntwqNXvLWa659z112Nv4sFz3tbwa3sabR54zmEVMxnxHESEgc0dJv9qVkRJ/4727tPH7ReL46dLCAtHdl+aNhbYJV36mXve7rNFqCynmZ7aOr7GKgN3oZseEMYVjj6RR6LIKkGyhvRHlAOBacynLfYEp5QVKwePx0yWnXHO7vIKo/E1XLBug3H31d0qmeKYycaqzzveYOsejEaPvA64U2+a40Ez77m/PQ93a18A0558Rr1yFvuBciuFeeB8GJZNnsIsfriOAmJAxZI5dZMZ3Nc/W28cJwbt9lvxLETAShFwx46Wrft0zTLP0cru18quJXLdNu/WbPdomazXXixETkThkHyioCwlBtZYOMR3DvoJl5oy/ZdzfWv123vy8UO+n5OBlaOjDwDTS7ilBeE11C33bsns7bIKu6fQFnhigdF3MwJ20h4rH2NB1+nW97lhukfK15DBCKpNMf7VY0HHz0n9x9YzEU3JnGshMQBC81kvzCrI7FRHTxUq+xWTHOoax5+ZC2iZkm+7LxWt9n7tLL3JfRfNGx2tWH7Kc3yNN1Guy62D1YwpKZQa42QoWC5RdeBVdephM/jYZ1V/pq3K+8H/STex3RBzvdfU/SGdsRRSHhWoIIGbHdS6ATExecs52tFr5qHAocFLq4pTiKnMTYew608aNj+n9E/VbxGHFAqQrO9xXGlezn1ZHkrXHf7tCkpISExLgwOsqRmskJc3HjoUAoKtvcPxNyi7oduVY8yDPvoSNDZHBmJec97WcHxX6OZ7hmaXXlXwfQ+qNv+5zTT/QGiJAzLu1Y3mapZbDVifXXLq2g22wJaBNdCXRQ4oRCyV0t7j+9ePxkCRT7oDz+WN71Lxec2ncAtUNu7qpmjGs8TEUl5VortjNQN9Ov6oSiNoFusgM8OPTU7oVBgsYeJTI8YTmWBZrFXoZ65eJ1mWIvvtMUqcRQTjALD9q8Tx0lIHLDQS87Hiqy6t7XCZA/DeajbHnpBPl7wM9t7CEX6ebdzns7Oduu29xgs6sjC4pEdQxu4Zc15bHSLCUu8jidjciIlXBfu49fZcdQ+mUhgE9VM9/44RzWnh0Y2BUh3F8d2C7VEMvdDhsPWFtzKvk5jwbFpwplecCv4/qQ123tbo0YZ7SBveS/TamUPGl6HR+7Y7BJxnITEAQnX3fc0tDWDhSJ+4UXh1qk3zLloKN56wc/477yh/RJmD+7nrUNH27RU1q2E3yN6fVruP/KWpYjPcaqhl9kfsEnGPVsoVc10N6D1mjh2vCht2fJstK4z3Ipa9IY5hdJIgcYJp3yGI+7cX6bb7nlBB6V6G0F33Y/H1cHBd1Uz2c582T9PHCchcUBCL7MT8+bEJ8pMhuClRVga6nJ0UgecW2h+fHGwSKCcoBDzptvfrcJW3QDWotvehjgOGs+BO7Et9y/i2PFAdd2nFRzvo7rNluAanEJp8QzrBc8b3zucyIpuNac7lU8Xh4fbap3XCobtXVGLWBr9HcD1NJttKjnVl4jjJCQOSMCSgnJq9IWfzhJRNVBQoAxA00DR1golsft001ubNx1ND2kdcXwkfIzloRbHCjg146iJ/dd1K7X0dmRslqdH6FqubF/BP8MYJVquDAea5d7frQqVpdKWZ2uue07eZrejLngtoiS+nIMo+Dx4TRROb3jVglv5xl357p1yYM3rpnt3XCJQjX9ng9MhXFRCYtzoD4KnIHmmWYW86SBcafvD/OWH0ojafem2t0u3vU2G4xV1y03rtvfLvM0+srbozEOcue54TpyzK5q35hxk/0a1vbzpXgrlgjFxTTSicZyqsL0HNdP7Qbst1yYCmuO8GN2D4koqREoTqeji2E6BKJR8mb3fsPy7Cq7/GC8r2+T5NhJY4M56XolyxHD8n5f8DT3idcaLVcXibEQ7NQqlxfPAGjTLu0EcJyFxQOLOYvEwzWbaVNAqeKHqJeLQIysbiglHdR5yWIu2eBDNlHXb6zNs/++6xX6IY32u7LwGDRTq72v16tXP1SzWi3maWeO88JfFLKTyYxzvNm95v4Ljt51nwikcHN9ddsuAZU16PDJavmkW+xk2t7j75Fy1U9mVK3lvEMe3C56EZbvnFd3KUlje/+XAG1+zkUSx4Ibj35N32B+RPi9ep1sYdCtvRrJPo028jj77hjhOQuKABJou6BZ7pFmVQ7ywNcdlzWlZL6h3US/7f1fn8NzvEAUXWieR5Vsv4TU3abab0x3vNt1ifzBs/1u65X7YsO038PXqzast8jA8y/lVq+JLnJdFoaVB9x3145Hun7fYdxE5Ecc51wvoDF4nxPHdnOl8utMwufEAjkvdZFsbKaxIwpDSm0qloONSuf3V6tN1y/uYbrGl2CgwVys/wuOeDZLIwpOUbvs7dMf/U87xXyNep9vQHe97PHu1wefPMzot9phhj31jk5CYVsib3nvw5W70ha+Tx9DBHF9+FOivk1E1nvFzHm5Y46l3gnNGWCI6v+uOf49mMRT5N3WLrUBDA81kV2qm+2PN9j9rmP5Zhlt9KWLUB0wzgYSOBQsWdBy5MGDanxr0h3c1U26R5Y/YdnE8gBokA2XrAsOpPNBePewa1VLyh3brFrsZdIc45wTgSbrt/7bZ+hBlgw0JnenFwc0AC1xzvA9qJrvzvxx40+/I4yV0rpqo/255Dxi296+c6b5yvJEo7SJvebfGxdPz74XlbZ2OkUcSEmNCvuzA8mxoZdWcgOyRvMV+qJve2WhAoDv+5/MW+4LusM9rFvsa0q41x/82BJazZnlfROQBLGjdZu82bPZWw/ZfXfS8k5Fu369XD0XjADiZgiB4SrcbUiBD1HD8rbVU+tEvcSThS74QBabEOeqhl+336Q7b2G5CS43H59z5RmQ0gqsV5+wWtEHnxZrl3teMo+YFzix2S7u1zwuuS/OW93Hd9lcX3MpjuJdm8zcSKEoPseCsui0P34PJTp0sBQ7A16FZrBCnyDll5vjL8D0Ux0pIHJDIW+5f8KI2UlLcUeR4mwYHB5PiuOmIXMnv0Sw3H5eSDeE9Rtdtwr9OiY20ld04MOidplneKjiEm1FQkUTOtLCMwIr8IHv/gqDzk0UroIxBMx8Ajyl3/R156/HUUSOsHRxM1mrZVAdMtKALSyCIczYT/D2va+L4Dxmmd61Wdt4kXmcyoJnmGZrFtsf5OGo1VryfogWgOFZC4oCEZnu94IobKQPww3mb2eCMxXHTDeBycxa7HjRDocG91N9TqTK8zTDds8Q5msEZGSGazf4cxT2L8zaSGqfMLfnHdNtboJnu6eK8YwX4XUTMxIXX4dq1psJsUTNuHBEjoJcGvWoOTTCikrzifHGCv63VQ1kPZ/SeIhu6bsD1zxCvM5kwbPbVcmVdw5pB8GdwRV5m7xbHSUgcsNAtb1VcFxleI9ryVkxVzepOoJne90uVkX3NLGbusPWGgpzpfksc3w6wodWoI/8eWPXtWqy4rlNzhm7VHf83ZhuV+5oBtFS+7PZikxCvFUmYCPMwqC1x/EUXXfRkVLrUHe9yzfJ8rA+WdFwMepxgQ4PiL7oVXOcWbC653NTSFfiuGrZ/dWVT49ZuNZrI3yIrHkocVNAtd7BR/HFED+ime9t0V+Sa6X2w4FQebtacAPcDaz1vsn+Nt9Fxvuy9Ube8O7gzr8k1xetjfbW/ZxuKbuX7a8ao0AuO90E0TY7ftGqOV91mNwbBRfvpg1wu99SBsnNKkVV+BWcfPl9w4J105YHAgYqCZgVWfTBvMVUrO2dOZqROM5R80GteLi4vgjuGLdZXLBa7kj0qITHlCNu62ahxIX7ha2FjI/jSXy+Om05AVTzDqaxrpVC548tiq9aUSnPEOcYCvaofqpneRUVW3QbLuNExvpGgwQWs5RqFUfU02/9WrlRqOyEGCTmG7a1pHqkyhIYXDxRc95UYA35+wPTeDktVt/0HMRaWabtrrq27Vv2y1nWIRyMtyJne2dNtkzfsoTcUWfXhuCxT3trN9n8hjpOQOKChm8yMs8gR563b01eR5yuVubrjDzRTahDw4oNedV2RVU8V5xgvECVTdIfUqF5IJ/wyKC0e6+5VcsgOhbNWnF9E3nS/0szBCeG1YErub6tB8HTD9D6Qt9zbdMffgQiWTiNQahv6cNhQw9tdZEPXa7b9tv7+YFpY4CJ00/0Ki2mqUaunM7zXMNn54jgJiQMamuXpjaI89lMrNls03awuwNi06Vma7d8CS7uZZckLZ7mVx/Jl9xPiHN2CruuH5m33myjCBCXarjMUAscsLHqcfjTLZbrFvruWsYZRQqtt+2jNckeazc+TtFx/k2azKzWLrSg4/sOwopvF1DcSfP7YAPl3w/IeKNj+PwZs77Sp5sCbAVm5aPkXR6tw573pjOQt62RxrITEAQ3Ndvvjshdh+eUtd/V0U+SoD5OznF+1KpUKxyYs3pzlTFj97XogCUi3/WuKbOh+KM9mG4wo4Kl5ESmucNlQwalerDvOS+rj7HO29ztujTefd59muY9pprv3v/ON+pumgmvwTFW3skEz3X/qtndat+P9JwLgx3XbWxd36uDt7yzWt2iKmmJLSEwYYMHweOMGR3UeUmaxCqxfcdxUAlmgg97Q7rgXFsKdm4gXN9lNk13QSrPZu1DWFaGBsGgbPds4CY//fO2G423LW+5Vmls5HREhcFC28gVAcL1ONpFoDL4HbP0W8OsbdNv7HfwP4r1NZxTs6tvAjTe6d/zM4qVrXcmPSxx80Gz2C1iujb78eLE1y9umOZXJSDdvC0aJvRVFl1opNDhwtbKby/mteeeJAIqR5S3vAsOtFrFWKPVGz7iZQKHXMjO9rbDS8bNONoV2BCeaKHlJd/wRzfZ+rA12p9TtZAOhnWHY5aj7xM/zprvDcFsnR0lIHHAoIJ0+xoILw9seLTjex8RxU4HVg86LdYe5cRxoJGFc/MZcyX61OMdkQ3ccUnAr34QihjMUa2ukaJpJnaId9buxCjZvnjzlVvbptu8ZrndRnrG2Ml2nI5AQptmMb5rivUJqDn3f7bftI8WxEhIHPIxy5RTNQkbeaK4ZCodHQNju1eK4yQYKHOm2t6pGOcQpNBamlg/tRN9IcY6pxFrHmafblcsKbnUEzs04hTPRgs8ZMeAIg+RNN2zvG3lr+IAvHgUaCE7ZWqTV4+85oo1As4njJCQOChiGN0u32HCcUwxlS/OmW0QhInHsZAENffOWe2ur9HGcIMqVkb2a6X5fnGO6AA2Bddv/TcH1N4CPjqMCuimYn2dv1opIPVZg1UV5y/s/U6jhfiBDs90foIZ8o+QmnDbxDAZs7zPiOAmJgwKow6FZ3j8bhSBCoAAMx9+p25VzxbGTgVLA13cFKIlG9E/9y4pY55zJ/latVp8uzjPdsHbQfrlusZ+CAgqf8ah76pYYjr9Xt/37DVb514DjvT1rGNPKeT1eoLlG3mJLwo1qlIT1x3eglr04VkLioIFhs4+AL41TJjiK50znWoT9iWMnGjmTfRuWVnw6ek14ByGLLXNdd6Y4x3RGwV1HC653ue54D8ZlI45VsLlpNttrON5t+XLltdMljb7bQEs/zWQbmtYMctjSdkv5SkgckFhVtF+Erjxx9Ar4xQKrbh9wKqeIYycSa8v2Rwpu8xoqkFpmJzN1NnyiOMd0xsqVpcPzJju1yPxfoOFGtxU5pHaKYffotnej4VYvGDDZSXdNcjjmRMMwUe1wpOGJjYehjsCvwr4mjpOQOKiAbD00H/Y3Nk5thiBBRLPcKyYrMUQr+28qeUObUdRJXEu98Op7rLpBt+3TxDmmK2BB5izv6+h/mTfZPiQ2xZ2GuiE12qlWolaz2b2G69+qm943ddN7+4HeJWflyMgz4MSM++7y9oPe0MPIShXHSkgcdChY/jklf/ihuCQbhKsZrv+g5navpnYcNNt/uWa6wy1rqCBCxRt6EF3dxTmmG4rDw4fptnueZrr/MVy/CisxzJ4cdV8TJZHTE1mn6OCjWd6OglsZyJWdv+ct9xODrnuMuO7pDmS/glaJK1vANy+L3XG3580Sx0pIHHQolbY8O2+6dyCSQnwZuPBQRP5SZCey0QRKu6L+SyslHjkI84PutO2EnvP9QzSzcrpheb/XLc80HP8RKNGxxJLXC8/+jKES2hVcH1QaQiFrHZO8Rw2nMqxZ7C7dci83XP+s1QWXTresXhF5y/8ENsW4GHt/0za0uvvpjGDGtCozISExYcg7lf8tuJVYx2KtIFN1D3p2imO7AVhNOZMtRex6M0UHBQbeXDO93+VywVPFeaYS6AGqO84rDMe/ULO9lagYCIW5v/dlk/tqR7jyttgew2b3Yc6OmyI3kMhS59UYhzfw+QzH35O30aCYqYZb+X6+ZL1Td6ovQbiqeM9TBU6r2N5NjcowQ1A33bC9hw3Ll9mcEk8cwPrKW+yOOO8/hL/obmVT3uxuSVhQDznT/Q9vdNDE0sTvuLVuOgt83z9EnGeqgIYNuu19ueD6t+iOtwO0CY77oVIcdR9jEczDQ+wslio63ttRKbHg+suR0IWCUNgwophpcWwngjmwbmw82DChKPl3wvK2Gra3vOD6v8ub/uc1xzuzaFePRxNt8XlMBlaXSifkTfZA3EbGyxuU2ao1aw6eeHkJibZguO5ZuuPvAScuvhiRQJloFrvTNIcS4vixoL/a/3Q4UltVM4wUmWF7/cY04DzBzxq2/y3NZosNx+OcPpRHs2c3HuGUjOtvQjZutAbNdWeinZvhVhH54oRJUVwBdzM+nVvtYUMMNGfgZRIs7wFQRgXHz2q2d5Vmsa/ppnd23rZfZBgTT8nkLPdLcQlV+Fm4+VwujpOQOOiBNmh5i13HO+o0eKH/+5LwOtV/HW9sbjBjxpPyZedHyMgMEzdGXS8SrsSdSjFXtI8X55kM5HL+IUXbfxFoE93xl0KpwnqFNTzRkSfY4CD5crxPAJy27lTPNhzvWt32hgqOvxPKDJ8laAZxzvFIxLGDBkOeAU4g+DkSb5DkpFvMzZfdfsNmf9YsdiGaXResynHIENar1UNROxydi8R7aBdBEPw/tNuLaz7NnZ+W90Cx7L9JHCsh8YTAmnL5RM3yKjzJpsFLAomO3nnL/cmCBWN/IfO29w00V4iLYY8kXEs1Z9bal00WBkwzYZT8VxecytfRqEGz2E7cO7JIa3Vd4k8QrQTKsF3lz/uNlt1MO40dUD/edTfONBh7v2b7VxfYkI51c4XLlXr3Twy4DzwLfI481HF4Q9iZqXYqMGxvDxyqmsXWaZa3SrfZzSiVq9veN4uuf55m+mfgs83b/ovyJTYf9V9At6HRtHh/ADZUKOq4aBVegtl0tGr/9M/ylZCYMBhl9hGzsu7hRkWIIsFLW/KGH8uX7K+K49vBgOX8X9Eb3hn3MkYCpTDIhjbnS6M7wk8EtHL5eZrlfUgz2S9024Py3gUFiHVCMY2Hh+YUBRyLwxsQKbJPs71d4t+IYnKr09+iDdpjKi+LPqUDpvPBnOn+ruBU7tQs9ggoIP5cx3k/TcWp3e9+zt0b4t+ZqJojlC34d/5sa63kHtIsb71meaVa9AxLIb9BM9mVqE9jWP7P0SdVt7yvG7a3ULdYw3Wj8QbfYC3vJ+KzkJB4QgE1WNDUAC97wY23Ojkf6488nHc6i2TRS+6Hi/7Qg+ZQ46NxJNyqY8P35Sz3w+Ic3cLKlSPPQBccNEKGpVhwfCiSfZVNNS54PFY3JAoXBG8dVuF7QLPZ1ZrpphHV0kgZRRKdfHK2+2Vx3WMBThgDFnu9Znlf0m3vpjzPKK1dI6qb3k1uvZVEpxJu0YeKPrLoQQlhw8FJAmGE4OarW+7h0qjPbCSYJ2+yR/OW9TLx/iUknnDQ3I0z0QqueenYWmLOoD+0q8bftm4Lt9Z03mPY/v3NomMgUHqGU3l0oOR0tEk0AzJTS6XS4WvK7ETD9T+hW+4/NdsrGa6/DfcIpdEN5Q2Bcqzx09zqvVe33JWGU/mablWPQuZqwam4zSglrAfcc850bpyI2P3+UunZqw37aM2uvCtvs99qJhsoOJUtuuU9is80inmfTMXeDeG9OW22RLZ0k5AIAYWnO8zhSRcNXppIakrX36uV3IsQ3yvOE2HA9M8wXH9jKyWOuiMQzXR/IM7RKRBdozv+K3TL/bDuVC7XLbZWt9kjBbfGzcNxG4UKiuvoVGB9YyPwNm7D/+/UbS+nOe7lRVY9NYp5R+s5UDY1B2G8ggytTkdz3RPEe5oIoCia4fvH6pbzsbB5812G41d1i+2GQ9ffuI1TQjWOPX7dUynYcEJ/iixZKyFRj7ztvbHIhjfFJV5Ewjlz7gBlf11VLI6qX77WYq+CYohr9hwJFGotGsH/TWlBZ5Yowt4GLO+FubL9bkRLFJzKn3TLu1O3vQdhHUdd7rvFDUccMM+SRHJOzXrN5W32G8Nm7y+NjBxev74gCJ6qmexvzapNQmDNG25ll2F6H6gfP5nAWg23+lLd8j+sme4lBde/XrM8TbfYw7DWcb/YkEt+bRPkz7MLz3Q8AgpLs9gmnbEDqoCahMSkYE3Rft+gP7S1GTcJgYLE3yCVXyv915Lk9VNsZtcU2OhxkUAZDPpD+zTbvbJVga5+vXooYrl1m52rmfZFuu3923D9FZrlMQ3KZsPWoLJp236nXrcUTKS4QT/UknBgyftewa1ckbPZu3XLOkpcawRw3YNsqGFHpkiwTh51YbFfi+OnEiiDa9hDR2ume7rmsPN1u3KpZrFbdMuzNIvtjkIkuUOzui7k3GubZqToxXvttoBL10z294mgoiQkDgpopvPBglu5r5Uy5/QC6rKYnm1YlbcU2NBJms10Z11zKxS/K1fW7dMdL5Mvl+cWi8OHoeelNjR0Qs6qvEW3vI+DatFtdo1mu0h/9zXb24xohyKrcMcYJEqHb3atTiVcG7dCSxU+94NQYIbj/cFg1bfqzghpFYY5UHbO1CzvgVZt3kBjadMk6akVUJIAFRRrFJx3tub439Et7x+a5a3ULG+dbnv3IEpGt729sJaxQTXbxMYj4WbxWH4KTzESEgcE8pb78YJbvT+sKjfqZYoEii9UWEgQGcHxu5Vi5b+32GOa5eZ1i61AUolmeailvVu3vT34m/3WMOqCgNvmjtbIKh4953ikprxHuAOUJ0g53jbdQv0U9pvcIHtLacuWZ4vPJw65YvF43fX4iUS8Tr2EjaU3DDjOK8Q5DiTAer+zWDxsgLGTDNd/r277n9Md/2Ld8m7THO++ibDOeallkw1MZVtCCYkDBigbO+gNrW/lAIVE8cOdOMdqHPkIV9i1Y/l/j+bd4LUbCeZEQ2LUr8Z1cW/W8Ebw/esNp3qbZnvf1xznTWPJZC0W/dmaxZa2OpGE9/wIOjaJcxzoyG3IPTNvsXcOetUrkPnZbasc34uyP7LPML1LxWtLSEjEIGfbbxj0hq1WoYnTWeq5bs7l+kNIIsGpwDVc/yrNcj9kuO5Lx9PjEtSDYbO/2y2KgUUO3rzp/KaVb+BAgsmGTkIZ2YLrr9Zttgenm24rcQg+Q63sbtNLpZeIa5CQkGiCgRLKtVYGQBfUXs54qmU6CDacmrW98b/lXx1/B88mtL0sTxc32ang5bvlLEO0R8kf3teqkFYtBd/pKxaLh4lzHEhArZ5VevWogu1/SjfZEsSlg/oC7TGW0gB4bjy0tcmJLqLx0JtUXI+EhEQbWFssztNtdiM4cJ5q34Q3n2yJFDccr4hmCBsoPGC4laJmeYvzpntp3nLfUapW50yEFTxguRcUWYXXIxfXtl8sxmkc3WZ2rlqdkmJg3UDRto/XLPcc3an8NW+6PFuUn3Sq65qeROIEY7DZ6ra3L295Zc1kD8bNw3/ueKj7815xXRISEm0Cdcw1k11SZEOPtGoK0U2p8dq1OG4ID31DZMTwBm4B8ugay9um2WyV4frXaKb7LcP0z8r5fo94D91G3rLeOegN3dsqQgVrLflD2wZN983iHNMdhm0frZnORw238hfQUXBAY9NEpcWx+DLw9/gMoxNekVWXGU7l/LztfbNcHYmtO87LHtiedqCfZiQkpgUGLPdDBa/idSvErF5Rc6dpXcElKI3/JvaEzRssb6dmuaiTcn3B8b9jON57DMc5peC6VFzrREKz2Ks0i61vFaYZOnN358zu1FGZDORKfk/e8v5Ps9B7FCebWk2aGrXRmeKOhDsqw7hzVGksOP5/cqZ3Nmqto5KjZnuLkVkqjouE5yZY3hfFtUpISIwROds+vuD6/xn0hve2SsNvR6JkEnTB0VAdz2b3GK6/IV9mjmZ5ad1mv82b7PO6WXmzYfrHotLfWCJLuoW84zxftz2jVZhhRD3AuYlQPXGe6QKUEyh7654X1qW5DbHhhuPvxokHlNB4Nmx8tqh8iA2NZ2M63h8Np3IKapVH189blXcWWWVPMSa8lG8gtlfFZ//4lUtISIwLqCFt2P5Xi6y6Ec2cx/Kyw0rTLDasW95fNNP+lmF5FyDhBDWr1zKWxDVgrYnXnkrky5W5uu3d3pJechAvzrss3bzadZ8rzjPVGHDdY4quf4buet/ULabqFru/FlWD01CtiNZ4eo/Cn4K6LcgN4OUMLPcnqPEirsN19z1NN73bmm2K/satqHT42xnT7LsgIXHQIFd2XmPYXi8UAI7OTZWbIGFEyQbNcn+fK9mvFueebgB9o1leFgk9re4zdOLdjYxIcZ6pwEUXBU/WS85LCjb7lOFU/mLYvoGYeqyTV7YcZ10aTo+FzTjYOn7vW3XH+6dmeh9d5Y+uyROh4FRea9iVR+MMAXyndNu7Vx9krxPHSkhIdBHu9u3PRSU6HR2HhjfyY3S7yUFQIEi5N1z/Xs12F6LZxcqVK6eMNomD522aZdj+LbAc4yIrIqkV1qqWCpb3QnGeScSTUAJBtyvvG7DYr3WLLUW5AyhM1KYBJdbqPloJlDc+vyhGP/z5SpzUNNt+eTunKd1m18Vx7/iZuw6ZnO4NuVyOV5WUkJCYYIA7N2x2TZFVH+TcagcxxVAE4FILrr8zb7PViFFGgwTxGlOBnO8fYjiVa9vhi2t1zivr8mX7jeI8E4lcLncInJSa478pb7Ef6SZbUXD99brtPcxLEIT1aWA1i2vuVLABRE0hwKXrnB5j12hl501rzPa72Rct72Waxe6t2wQeJ9wgcPwdBdt7mzhWQkJigoE0bViAPMysw6xQbuHxjkHYBJhd9Ia+jzrj/cHUOAvRmCFfdv/STpQOD0O0vAdyZftccZ5uAwpTc5wXI0besD1UhczoFrvHcPx9kZOVc928Rs34LG8IPkMoXPDeULCGW3F107tJtyr/i2Ji4vragWY6f8Ia474fvHmExZa0KlQmISExQTA2Gc/SbPczg96QBisVqelxL2wj4eFqsNJrXPO9huP9K19mH9E0d6Z4rYmCjhK6ZfcvUCitlDjWWnQrj+iW93/iPN3A4OBgEs2LdYd9Pmxo3Icmx9FJZj/P3aVSslFIKOZEHDxOI4btrTdY5V+G7X1mvI0wtEHnxTnT3RAXvll73myfbtvvFsdKSEhMMlYbxtFIi9dtj9X6WXaeBQgLkEdAWGxvwa2g889vC2X/NRNpqa0cGTlct/xrojrn4prqBcq04FZ2D1jsQnGesQClA/JO9fma431Qs9kvNJv1GrZn6La3HQobfS2jRtFwWIrrGatgrqjqJJKuwqiie3XHu0kr259EXfhuhVEOmO5vsUnHbe61sFa2orSl1Hb1SQkJiQnGKt06yrC9H8OKhDJqx2koSi0meXOUEn4vwgANt/qZtY4zr5sOUnT80Sz3n8hgbMXzc4XnVPbmLfbdTsPj0C4P9ciLzvA8dGgyLHahZrN/aRYbNJwKarA/AsWKRBlYxOGGMWoN45GIMkEIKXc6upUdms2qnDZxvY+XGJtvjKOgWCOgI5HhVjbFZcTyNVXX7cMJTBwrISExDVCwKsfptv/LAquYsLpatUNrJGg1FoU7QrlrNtuu2+x6zWTnw2ocT4TDgDmUQOw36IRWdEqYyLRPt9jF4jwi9Gr1UCS05Gz/1Tmbnas77LvITtVtrwiFjXojUNKRRRzdW7cVNwRzQomiSiEse83ythlO5S7Ncq/QbfbuThyWnYJncVreFdg4xHVFAks9b7G1SPwSx0tISEwjrCqXn6dZ7DtFVjVAX0CxdBzHXMfjYg4e3w0e1/av053KpzvlcXlRKNNdzi3xFkoc1y241T15i/1QnAfOvzxjp2omqBH/WwXH+2Mt6cYra7b3MJQnhPfCBLde1yato/tvQ+q5bmwOONHgv/MWcwy3cl3edr/JTwObNnXV6o5DgbGTNIvdH0dXcd8IrHHb/Yo4VkJCYpoCtEgeDjzLy0eW4li534gmgKUZ1mZxddNdaDjsQij1ZnHNA2XnFBRlAoXRygrGdYpeFScBWNSnof4MOuPkTfYvw/GX6pZn8LK5FtuNGPkap725Fo3Txb6ijaS2tlpZWM51I2qlVv7gAd1hSw238gO0o0OoaC4IxnxyGSs0k12NDSzuGWCDy5musaZUlda4hMSBBkSjaJZ/jma7mYJb2R7RLq2UapzAwoWVXnOoeXvBOedt73bdqXwPyrdUqs7pDwLuuNNN8+267XntZGzWi2azzbrNNvEiUG6Fh1oiXhubQRRF0sl8Y5VauOF6nliF04Rue48ZTmWbZrGCbrl/wclgVdl7nq7rh4rPfTLBC43Z3n1xcePYgGqnElkcS0LigAdeeDQ8HmRDFhTiWGu57FcQqCESVt7jnLrF9mkmszXb/5MGB6zJtsF67VTpcrpif3XG7tMicRKdXJBej6qEuK5meyOG692hWf5VyLItWsMvq1arTxef7VRBdd2n5UznxmabJT4DzXI0+BPE8RISEgcockU0MvC+WGCVXt32d/Hu9mGCS5wyaCUYC8Vea0ZRi4+O42unUiJuGxRRtGFENdjxe81mtuH4t+q2+xPd8j6GpKn6ioLTDXnTec+gP7QjrgFH7XNBGz7nY+JYCQmJgwCgBHK294aCO3SZZrvDoUOM0wnjsdSnk9QckrXeoqCVeIIR4zz/vlppX2+NZvt/NtzqBXgW4LjvsqzniM9qOgJRMLrNlrANtU2okdTixt2Vvu8fIo6XkJA4mBAET0I1wbxX/UDecm9FhIpue3vBDY+FGpkqgdKGZYraJ6CNECcengoeNhxvk24yU7PYLUi9L9iVd+VLI/OhDMcTVjmV0Gz3k2V/hIdXis+i7nns1Uzng+JYCQmJgxx61TpKt90vw0FquP56OPrgbER9kXarL060YHOBkobF6a7fElQ338MVuGazB5HtWnArdxqOfwOSpfKm9wGdDZ8YlIKuNIWeDhgYGkrkLbfUrAEJQ2cgy+tbWRo5XBwvISHxBAHCCgds+zTDYl8bdCu3aBa7h4Vx2twRWaMoRimQiZbQCblLs9mQZrEVqM/NFXbZvUArO2fqZXbiZMVvTxU0070kyhEQnw8EJ5OyP7JDK7nniGMlJCSeoDCMTc/SBu2XG2X3M5rtLdQs917wzDUqI4yrjlEqEyGG4z+GiJK87d2oWd6XtEH/5eh8JK77YIRm+y9HY+y4cENsdHA250vODU+UZyIhIdEhoNR1yzpKs9xz8pZ7jW75ruH4D8JRCgqG1xaZYEsd84fXgEJHP9J7C66/QbP/f3vnExpHHcVxqHgTwT/gxYsigqVechDRglU8FC2KiAhqKaJFsKBSBRHFnCyIpaHHFguiCB6kB0Gigqcq1rjze5Pt7u/9Zt6b3TRNWhv/VaotrS0r39/sJOukxKBJTOr7wDsku7M7O4c3v3m/975fOeI4P0ic73KZboOPJWzkYEYM6dxer7eu/nvWEqjnu7YcXEjGuBz8KmYoy+6oH28YhnFJmkePXuOCPOza2Yhj+TLNdBqJBpOXi9FW+TcR2+t0otRS6XfcVD3ofclW9Ld/74IcdkE+dlyMJKHYmbTD4zBs+E5kKA0TN62VHuskyNaWTp4t9yvmXw8kdzwhuXa2p36sYRjGooAcK4Vwt+P8RTi7O0YC1XMYpUdSR8JdLv2TKqrVeuwXl4F+8f5UKzpayr5xuUBBp4nVOdZRCvKeY3kbsrlpkK2pL7Y4kbsgfQt/zP+6uwXepgnnRxYyVMbvdCwFnpjqxxuGYfwjkHzSVtg4nnW2U5ADFBQtgH8g0VatgrPmDStbYy8nUwcGgooTP8TuF7RcomRDLKfKRC859GIo00PE+WiUxG3LHuflNReKZ5KWPJSGYiOchcayozc3wvT1qE0j8ePGhnLOQno0i4W87F0oiUO9krtTvYaXHfVjDcMwlgQYO6BWPS4TQxRkB3n50Hlpppkeh65KFOaanolqi9H2bJlW7H8X5RDRXLkmOvkcOzHbm16dX3w/y3kXBDX6X0rZX4Xe+TQFWDjJkcTnXzuvo8T6kQu6n3y+2/n8zdTLTheK58nLdud1G8wu0rx4tOGLLUkIm4n5XtwcvJ8YauUT60vFRz270LRs1L8JnS+g+16/9oZhGMtGr9e7Ismy2yjkTyVB33FBP0uDtinIKSRM1NmRRJHkV3LFvlBUZRus6JFYUa+O7X59LfdYq5+Y6itOlqqTeB3vq2r3VZRyAXNRlYUGNnP731mWiernUkU0k2A5PdbO7q9fY8MwjBXn29Tf6rLsAfhoNqUzgvq1Y+0g0WHViRUyEmasty+j5vhSRT05owRST+CXjr8m/PrnVoHXsMlLPt9bv5aGYRirgtgV08rXE3c3NfPu04nPdxPLp46lQ0HPD7oAYUMTdfeyc6XcWF2tCX6pAiJljvMMxhv1a2cYhrEqGR4eXtdqnbyq2SxuGPN+A0nnsYT1Dcf6PmX6DbF2iHWGWM4gwaM0A5Pp2dX8nHDWvKS41qL/Oy4Q50/Wr5NhGMaaxfup6zAI5FifSNryesK633n5JM2KryBTi6lIaKdjeKl78qfofIRkP2sR10/y9Tr1agycN7G+i43k+nUwDMO47Gg2yxJNGvQ+JHmM9lPQt1zQA7FUE7RBrMco6LnognTsROxQwSq+Mm6e3bhEbX5g43Kwtr1SNwEkceeFibvWM24Yxv8b9HkjyWOUf5z1dljWJS3ZHIeCMnmFvO52rB+4oJ87Vkesk47lN8qKc7HfPOhFJFZsYladLK2i7GDBKh/qkQjcEPD3vI6W/s1hsLOlHoOdLgjsAzSle8Ykag3DMBYBhnkw4APDiVardS1q8+Pj+Y2pn9xA0t0ET9SE9bnE568S6y7Y6aFHvuHjhuwhF6RJmbJjFRekS0EnKchxYpmhoD86lp8d66+O5TQF+Z1YzpbqjmXEDV2WiygHVTeNdmfyfNLORrBfUD9fwzAMYxnYt69x5eE8vzoaeIjcgpV/w+d3Op/fA80XyvRB8voItNPxJOCCPFsFZZ3tKesLjaAvRaVHlpfxPzxF1L/HMAzDMAzDMAzDMAzDMAzDMAzDMAzDMAzDMAzDMAzDMC4z/gSONB1A40D8EgAAAABJRU5ErkJggg==;" vertex="1" parent="1">
          <mxGeometry x="317" y="69.5" width="63.69" height="63" as="geometry" />
        </mxCell>
        <mxCell id="XOvQ0BD-W2Z6vSkuwIXB-73" value="&lt;span style=&quot;font-size: 15px;&quot;&gt;&lt;i&gt;SQL Sever&lt;/i&gt;&lt;/span&gt;" style="text;html=1;align=center;verticalAlign=middle;whiteSpace=wrap;rounded=0;" vertex="1" parent="1">
          <mxGeometry x="363" y="94" width="78" height="30" as="geometry" />
        </mxCell>
      </root>
    </mxGraphModel>
  </diagram>
</mxfile>
